{
 "cells": [
  {
   "cell_type": "code",
   "execution_count": 1,
   "metadata": {},
   "outputs": [],
   "source": [
    "from pose_utils import *\n",
    "import pickle\n",
    "import sys\n",
    "import os"
   ]
  },
  {
   "cell_type": "code",
   "execution_count": 160,
   "metadata": {},
   "outputs": [],
   "source": [
    "clf = pickle.load(open('custom_code/pose_model_v6.p','rb'))"
   ]
  },
  {
   "cell_type": "code",
   "execution_count": 69,
   "metadata": {
    "scrolled": true
   },
   "outputs": [],
   "source": [
    "os.system('mkdir temp')"
   ]
  },
  {
   "cell_type": "code",
   "execution_count": 3,
   "metadata": {},
   "outputs": [],
   "source": [
    "url = 'https://www.youtube.com/watch?v=cZy6sByBHY0'"
   ]
  },
  {
   "cell_type": "code",
   "execution_count": 14,
   "metadata": {},
   "outputs": [
    {
     "name": "stdout",
     "output_type": "stream",
     "text": [
      "[youtube] cZy6sByBHY0: Downloading webpage\n",
      "[youtube] cZy6sByBHY0: Downloading video info webpage\n",
      "[download] temp.mp4 has already been downloaded\n",
      "\u001b[K[download] 100% of 42.11MiB\n"
     ]
    }
   ],
   "source": [
    "os.system(youtube-dl -f 22 'https://www.youtube.com/watch?v=cZy6sByBHY0' --output 'temp/temp.mp4')"
   ]
  },
  {
   "cell_type": "code",
   "execution_count": 15,
   "metadata": {
    "scrolled": true
   },
   "outputs": [
    {
     "name": "stdout",
     "output_type": "stream",
     "text": [
      "ffmpeg version 2.8.15-0ubuntu0.16.04.1 Copyright (c) 2000-2018 the FFmpeg developers\n",
      "  built with gcc 5.4.0 (Ubuntu 5.4.0-6ubuntu1~16.04.10) 20160609\n",
      "  configuration: --prefix=/usr --extra-version=0ubuntu0.16.04.1 --build-suffix=-ffmpeg --toolchain=hardened --libdir=/usr/lib/x86_64-linux-gnu --incdir=/usr/include/x86_64-linux-gnu --cc=cc --cxx=g++ --enable-gpl --enable-shared --disable-stripping --disable-decoder=libopenjpeg --disable-decoder=libschroedinger --enable-avresample --enable-avisynth --enable-gnutls --enable-ladspa --enable-libass --enable-libbluray --enable-libbs2b --enable-libcaca --enable-libcdio --enable-libflite --enable-libfontconfig --enable-libfreetype --enable-libfribidi --enable-libgme --enable-libgsm --enable-libmodplug --enable-libmp3lame --enable-libopenjpeg --enable-libopus --enable-libpulse --enable-librtmp --enable-libschroedinger --enable-libshine --enable-libsnappy --enable-libsoxr --enable-libspeex --enable-libssh --enable-libtheora --enable-libtwolame --enable-libvorbis --enable-libvpx --enable-libwavpack --enable-libwebp --enable-libx265 --enable-libxvid --enable-libzvbi --enable-openal --enable-opengl --enable-x11grab --enable-libdc1394 --enable-libiec61883 --enable-libzmq --enable-frei0r --enable-libx264 --enable-libopencv\n",
      "  libavutil      54. 31.100 / 54. 31.100\n",
      "  libavcodec     56. 60.100 / 56. 60.100\n",
      "  libavformat    56. 40.101 / 56. 40.101\n",
      "  libavdevice    56.  4.100 / 56.  4.100\n",
      "  libavfilter     5. 40.101 /  5. 40.101\n",
      "  libavresample   2.  1.  0 /  2.  1.  0\n",
      "  libswscale      3.  1.101 /  3.  1.101\n",
      "  libswresample   1.  2.101 /  1.  2.101\n",
      "  libpostproc    53.  3.100 / 53.  3.100\n",
      "Input #0, mov,mp4,m4a,3gp,3g2,mj2, from 'temp.mp4':\n",
      "  Metadata:\n",
      "    major_brand     : mp42\n",
      "    minor_version   : 0\n",
      "    compatible_brands: isommp42\n",
      "    creation_time   : 2018-08-14 11:03:07\n",
      "  Duration: 00:04:30.91, start: 0.000000, bitrate: 1303 kb/s\n",
      "    Stream #0:0(und): Video: h264 (Main) (avc1 / 0x31637661), yuv420p(tv, bt709), 1280x720 [SAR 1:1 DAR 16:9], 1174 kb/s, 25.04 fps, 25 tbr, 90k tbn, 50 tbc (default)\n",
      "    Metadata:\n",
      "      creation_time   : 2018-08-14 11:03:07\n",
      "      handler_name    : ISO Media file produced by Google Inc. Created on: 08/14/2018.\n",
      "    Stream #0:1(spa): Audio: aac (LC) (mp4a / 0x6134706D), 44100 Hz, stereo, fltp, 125 kb/s (default)\n",
      "    Metadata:\n",
      "      creation_time   : 2018-08-14 11:03:07\n",
      "      handler_name    : ISO Media file produced by Google Inc. Created on: 08/14/2018.\n",
      "\u001b[1;35m[mp4 @ 0x1f52d20] \u001b[0m\u001b[0;33mCodec for stream 0 does not use global headers but container format requires global headers\n",
      "\u001b[0m\u001b[1;35m[mp4 @ 0x1f52d20] \u001b[0m\u001b[0;33mCodec for stream 1 does not use global headers but container format requires global headers\n",
      "\u001b[0mOutput #0, mp4, to 'temp_clipped.mp4':\n",
      "  Metadata:\n",
      "    major_brand     : mp42\n",
      "    minor_version   : 0\n",
      "    compatible_brands: isommp42\n",
      "    encoder         : Lavf56.40.101\n",
      "    Stream #0:0(und): Video: h264 ([33][0][0][0] / 0x0021), yuv420p, 1280x720 [SAR 1:1 DAR 16:9], q=2-31, 1174 kb/s, 25.04 fps, 25 tbr, 90k tbn, 90k tbc (default)\n",
      "    Metadata:\n",
      "      creation_time   : 2018-08-14 11:03:07\n",
      "      handler_name    : ISO Media file produced by Google Inc. Created on: 08/14/2018.\n",
      "    Stream #0:1(spa): Audio: aac ([64][0][0][0] / 0x0040), 44100 Hz, stereo, 125 kb/s (default)\n",
      "    Metadata:\n",
      "      creation_time   : 2018-08-14 11:03:07\n",
      "      handler_name    : ISO Media file produced by Google Inc. Created on: 08/14/2018.\n",
      "Stream mapping:\n",
      "  Stream #0:0 -> #0:0 (copy)\n",
      "  Stream #0:1 -> #0:1 (copy)\n",
      "Press [q] to stop, [?] for help\n",
      "frame= 4479 fps=0.0 q=-1.0 Lsize=   28301kB time=00:03:00.00 bitrate=1288.0kbits/s    \n",
      "video:25402kB audio:2760kB subtitle:0kB other streams:0kB global headers:0kB muxing overhead: 0.493691%\n"
     ]
    }
   ],
   "source": [
    "os.system(ffmpeg -i 'temp/temp.mp4' -ss 00:01:00.00 -t 00:03:00.00 -c copy temp/temp_clipped.mp4)"
   ]
  },
  {
   "cell_type": "code",
   "execution_count": 68,
   "metadata": {
    "scrolled": true
   },
   "outputs": [
    {
     "name": "stdout",
     "output_type": "stream",
     "text": [
      "ffmpeg version 2.8.15-0ubuntu0.16.04.1 Copyright (c) 2000-2018 the FFmpeg developers\n",
      "  built with gcc 5.4.0 (Ubuntu 5.4.0-6ubuntu1~16.04.10) 20160609\n",
      "  configuration: --prefix=/usr --extra-version=0ubuntu0.16.04.1 --build-suffix=-ffmpeg --toolchain=hardened --libdir=/usr/lib/x86_64-linux-gnu --incdir=/usr/include/x86_64-linux-gnu --cc=cc --cxx=g++ --enable-gpl --enable-shared --disable-stripping --disable-decoder=libopenjpeg --disable-decoder=libschroedinger --enable-avresample --enable-avisynth --enable-gnutls --enable-ladspa --enable-libass --enable-libbluray --enable-libbs2b --enable-libcaca --enable-libcdio --enable-libflite --enable-libfontconfig --enable-libfreetype --enable-libfribidi --enable-libgme --enable-libgsm --enable-libmodplug --enable-libmp3lame --enable-libopenjpeg --enable-libopus --enable-libpulse --enable-librtmp --enable-libschroedinger --enable-libshine --enable-libsnappy --enable-libsoxr --enable-libspeex --enable-libssh --enable-libtheora --enable-libtwolame --enable-libvorbis --enable-libvpx --enable-libwavpack --enable-libwebp --enable-libx265 --enable-libxvid --enable-libzvbi --enable-openal --enable-opengl --enable-x11grab --enable-libdc1394 --enable-libiec61883 --enable-libzmq --enable-frei0r --enable-libx264 --enable-libopencv\n",
      "  libavutil      54. 31.100 / 54. 31.100\n",
      "  libavcodec     56. 60.100 / 56. 60.100\n",
      "  libavformat    56. 40.101 / 56. 40.101\n",
      "  libavdevice    56.  4.100 / 56.  4.100\n",
      "  libavfilter     5. 40.101 /  5. 40.101\n",
      "  libavresample   2.  1.  0 /  2.  1.  0\n",
      "  libswscale      3.  1.101 /  3.  1.101\n",
      "  libswresample   1.  2.101 /  1.  2.101\n",
      "  libpostproc    53.  3.100 / 53.  3.100\n",
      "Input #0, mov,mp4,m4a,3gp,3g2,mj2, from 'temp_clipped.mp4':\n",
      "  Metadata:\n",
      "    major_brand     : isom\n",
      "    minor_version   : 512\n",
      "    compatible_brands: isomiso2avc1mp41\n",
      "    encoder         : Lavf56.40.101\n",
      "  Duration: 00:03:00.00, start: 0.000000, bitrate: 1287 kb/s\n",
      "    Stream #0:0(und): Video: h264 (Main) (avc1 / 0x31637661), yuv420p(tv, bt709), 1280x720 [SAR 1:1 DAR 16:9], 1163 kb/s, 25.03 fps, 25 tbr, 90k tbn, 50 tbc (default)\n",
      "    Metadata:\n",
      "      handler_name    : VideoHandler\n",
      "    Stream #0:1(spa): Audio: aac (LC) (mp4a / 0x6134706D), 44100 Hz, stereo, fltp, 125 kb/s (default)\n",
      "    Metadata:\n",
      "      handler_name    : SoundHandler\n",
      "\u001b[1;36m[libx264 @ 0x2195fc0] \u001b[0musing SAR=1/1\n",
      "\u001b[1;36m[libx264 @ 0x2195fc0] \u001b[0musing cpu capabilities: MMX2 SSE2Fast SSSE3 SSE4.2 AVX FMA3 AVX2 LZCNT BMI2\n",
      "\u001b[1;36m[libx264 @ 0x2195fc0] \u001b[0mprofile High, level 3.1\n",
      "\u001b[1;36m[libx264 @ 0x2195fc0] \u001b[0m264 - core 148 r2643 5c65704 - H.264/MPEG-4 AVC codec - Copyleft 2003-2015 - http://www.videolan.org/x264.html - options: cabac=1 ref=3 deblock=1:0:0 analyse=0x3:0x113 me=hex subme=7 psy=1 psy_rd=1.00:0.00 mixed_ref=1 me_range=16 chroma_me=1 trellis=1 8x8dct=1 cqm=0 deadzone=21,11 fast_pskip=1 chroma_qp_offset=-2 threads=6 lookahead_threads=1 sliced_threads=0 nr=0 decimate=1 interlaced=0 bluray_compat=0 constrained_intra=0 bframes=3 b_pyramid=2 b_adapt=1 b_bias=0 direct=1 weightb=1 open_gop=0 weightp=2 keyint=250 keyint_min=5 scenecut=40 intra_refresh=0 rc_lookahead=40 rc=crf mbtree=1 crf=23.0 qcomp=0.60 qpmin=0 qpmax=69 qpstep=4 ip_ratio=1.40 aq=1:1.00\n",
      "Output #0, mp4, to 'temp_sparse3.mp4':\n",
      "  Metadata:\n",
      "    major_brand     : isom\n",
      "    minor_version   : 512\n",
      "    compatible_brands: isomiso2avc1mp41\n",
      "    encoder         : Lavf56.40.101\n",
      "    Stream #0:0(und): Video: h264 (libx264) ([33][0][0][0] / 0x0021), yuv420p, 1280x720 [SAR 1:1 DAR 16:9], q=-1--1, 5 fps, 10240 tbn, 5 tbc (default)\n",
      "    Metadata:\n",
      "      handler_name    : VideoHandler\n",
      "      encoder         : Lavc56.60.100 libx264\n",
      "    Stream #0:1(spa): Audio: aac ([64][0][0][0] / 0x0040), 44100 Hz, stereo, fltp, 128 kb/s (default)\n",
      "    Metadata:\n",
      "      handler_name    : SoundHandler\n",
      "      encoder         : Lavc56.60.100 aac\n",
      "Stream mapping:\n",
      "  Stream #0:0 -> #0:0 (h264 (native) -> h264 (libx264))\n",
      "  Stream #0:1 -> #0:1 (aac (native) -> aac (native))\n",
      "Press [q] to stop, [?] for help\n",
      "frame=  902 fps= 20 q=-1.0 Lsize=   25517kB time=00:03:00.00 bitrate=1161.3kbits/s dup=5 drop=3582    \n",
      "video:22363kB audio:3100kB subtitle:0kB other streams:0kB global headers:0kB muxing overhead: 0.212473%\n",
      "\u001b[1;36m[libx264 @ 0x2195fc0] \u001b[0mframe I:24    Avg QP:14.79  size: 80774\n",
      "\u001b[1;36m[libx264 @ 0x2195fc0] \u001b[0mframe P:603   Avg QP:18.10  size: 29803\n",
      "\u001b[1;36m[libx264 @ 0x2195fc0] \u001b[0mframe B:275   Avg QP:21.11  size: 10868\n",
      "\u001b[1;36m[libx264 @ 0x2195fc0] \u001b[0mconsecutive B-frames: 52.2% 18.4%  9.0% 20.4%\n",
      "\u001b[1;36m[libx264 @ 0x2195fc0] \u001b[0mmb I  I16..4: 14.4% 48.8% 36.8%\n",
      "\u001b[1;36m[libx264 @ 0x2195fc0] \u001b[0mmb P  I16..4:  8.1% 20.2%  4.7%  P16..4: 31.3% 16.0%  7.1%  0.0%  0.0%    skip:12.7%\n",
      "\u001b[1;36m[libx264 @ 0x2195fc0] \u001b[0mmb B  I16..4:  0.6%  1.4%  0.8%  B16..8: 41.6%  9.2%  2.3%  direct: 4.6%  skip:39.4%  L0:42.1% L1:47.6% BI:10.3%\n",
      "\u001b[1;36m[libx264 @ 0x2195fc0] \u001b[0m8x8 transform intra:59.5% inter:57.9%\n",
      "\u001b[1;36m[libx264 @ 0x2195fc0] \u001b[0mcoded y,uvDC,uvAC intra: 47.5% 61.9% 36.1% inter: 26.6% 33.6% 5.5%\n",
      "\u001b[1;36m[libx264 @ 0x2195fc0] \u001b[0mi16 v,h,dc,p: 33% 42%  8% 17%\n",
      "\u001b[1;36m[libx264 @ 0x2195fc0] \u001b[0mi8 v,h,dc,ddl,ddr,vr,hd,vl,hu: 27% 25% 23%  3%  4%  5%  5%  4%  5%\n",
      "\u001b[1;36m[libx264 @ 0x2195fc0] \u001b[0mi4 v,h,dc,ddl,ddr,vr,hd,vl,hu: 28% 31% 13%  4%  6%  6%  5%  5%  4%\n",
      "\u001b[1;36m[libx264 @ 0x2195fc0] \u001b[0mi8c dc,h,v,p: 44% 29% 19%  8%\n",
      "\u001b[1;36m[libx264 @ 0x2195fc0] \u001b[0mWeighted P-Frames: Y:0.5% UV:0.0%\n",
      "\u001b[1;36m[libx264 @ 0x2195fc0] \u001b[0mref P L0: 75.0% 12.7%  9.2%  3.1%  0.0%\n",
      "\u001b[1;36m[libx264 @ 0x2195fc0] \u001b[0mref B L0: 90.8%  8.4%  0.9%\n",
      "\u001b[1;36m[libx264 @ 0x2195fc0] \u001b[0mref B L1: 96.7%  3.3%\n",
      "\u001b[1;36m[libx264 @ 0x2195fc0] \u001b[0mkb/s:1015.46\n"
     ]
    }
   ],
   "source": [
    "#!ffmpeg -i temp_clipped.mp4 -strict -2 -r 5 temp_sparse3.mp4"
   ]
  },
  {
   "cell_type": "code",
   "execution_count": 70,
   "metadata": {},
   "outputs": [
    {
     "name": "stdout",
     "output_type": "stream",
     "text": [
      "ffmpeg version 2.8.15-0ubuntu0.16.04.1 Copyright (c) 2000-2018 the FFmpeg developers\n",
      "  built with gcc 5.4.0 (Ubuntu 5.4.0-6ubuntu1~16.04.10) 20160609\n",
      "  configuration: --prefix=/usr --extra-version=0ubuntu0.16.04.1 --build-suffix=-ffmpeg --toolchain=hardened --libdir=/usr/lib/x86_64-linux-gnu --incdir=/usr/include/x86_64-linux-gnu --cc=cc --cxx=g++ --enable-gpl --enable-shared --disable-stripping --disable-decoder=libopenjpeg --disable-decoder=libschroedinger --enable-avresample --enable-avisynth --enable-gnutls --enable-ladspa --enable-libass --enable-libbluray --enable-libbs2b --enable-libcaca --enable-libcdio --enable-libflite --enable-libfontconfig --enable-libfreetype --enable-libfribidi --enable-libgme --enable-libgsm --enable-libmodplug --enable-libmp3lame --enable-libopenjpeg --enable-libopus --enable-libpulse --enable-librtmp --enable-libschroedinger --enable-libshine --enable-libsnappy --enable-libsoxr --enable-libspeex --enable-libssh --enable-libtheora --enable-libtwolame --enable-libvorbis --enable-libvpx --enable-libwavpack --enable-libwebp --enable-libx265 --enable-libxvid --enable-libzvbi --enable-openal --enable-opengl --enable-x11grab --enable-libdc1394 --enable-libiec61883 --enable-libzmq --enable-frei0r --enable-libx264 --enable-libopencv\n",
      "  libavutil      54. 31.100 / 54. 31.100\n",
      "  libavcodec     56. 60.100 / 56. 60.100\n",
      "  libavformat    56. 40.101 / 56. 40.101\n",
      "  libavdevice    56.  4.100 / 56.  4.100\n",
      "  libavfilter     5. 40.101 /  5. 40.101\n",
      "  libavresample   2.  1.  0 /  2.  1.  0\n",
      "  libswscale      3.  1.101 /  3.  1.101\n",
      "  libswresample   1.  2.101 /  1.  2.101\n",
      "  libpostproc    53.  3.100 / 53.  3.100\n",
      "Input #0, mov,mp4,m4a,3gp,3g2,mj2, from 'temp_sparse3.mp4':\n",
      "  Metadata:\n",
      "    major_brand     : isom\n",
      "    minor_version   : 512\n",
      "    compatible_brands: isomiso2avc1mp41\n",
      "    encoder         : Lavf56.40.101\n",
      "  Duration: 00:03:00.40, start: 0.023220, bitrate: 1158 kb/s\n",
      "    Stream #0:0(und): Video: h264 (High) (avc1 / 0x31637661), yuv420p, 1280x720 [SAR 1:1 DAR 16:9], 1015 kb/s, 5 fps, 5 tbr, 10240 tbn, 10 tbc (default)\n",
      "    Metadata:\n",
      "      handler_name    : VideoHandler\n",
      "    Stream #0:1(spa): Audio: aac (LC) (mp4a / 0x6134706D), 44100 Hz, stereo, fltp, 141 kb/s (default)\n",
      "    Metadata:\n",
      "      handler_name    : SoundHandler\n",
      "\u001b[1;35m[segment @ 0xd24be0] \u001b[0m\u001b[0;33mCodec for stream 0 does not use global headers but container format requires global headers\n",
      "\u001b[0m\u001b[1;35m[segment @ 0xd24be0] \u001b[0m\u001b[0;33mCodec for stream 1 does not use global headers but container format requires global headers\n",
      "\u001b[0m\u001b[1;35m[mp4 @ 0xd274a0] \u001b[0m\u001b[0;33mCodec for stream 0 does not use global headers but container format requires global headers\n",
      "\u001b[0m\u001b[1;35m[mp4 @ 0xd274a0] \u001b[0m\u001b[0;33mCodec for stream 1 does not use global headers but container format requires global headers\n",
      "\u001b[0mOutput #0, segment, to 'temp/temp_output%03d.mp4':\n",
      "  Metadata:\n",
      "    major_brand     : isom\n",
      "    minor_version   : 512\n",
      "    compatible_brands: isomiso2avc1mp41\n",
      "    encoder         : Lavf56.40.101\n",
      "    Stream #0:0(und): Video: h264 (avc1 / 0x31637661), yuv420p, 1280x720 [SAR 1:1 DAR 16:9], q=2-31, 1015 kb/s, 5 fps, 5 tbr, 10240 tbn, 5 tbc (default)\n",
      "    Metadata:\n",
      "      handler_name    : VideoHandler\n",
      "    Stream #0:1(spa): Audio: aac (mp4a / 0x6134706D), 44100 Hz, stereo, 141 kb/s (default)\n",
      "    Metadata:\n",
      "      handler_name    : SoundHandler\n",
      "Stream mapping:\n",
      "  Stream #0:0 -> #0:0 (copy)\n",
      "  Stream #0:1 -> #0:1 (copy)\n",
      "Press [q] to stop, [?] for help\n",
      "\u001b[1;35m[mp4 @ 0xd28da0] \u001b[0m\u001b[0;33mCodec for stream 0 does not use global headers but container format requires global headers\n",
      "\u001b[0m\u001b[1;35m[mp4 @ 0xd28da0] \u001b[0m\u001b[0;33mCodec for stream 1 does not use global headers but container format requires global headers\n",
      "\u001b[0m\u001b[1;35m[mp4 @ 0xd28da0] \u001b[0m\u001b[0;33mCodec for stream 0 does not use global headers but container format requires global headers\n",
      "\u001b[0m\u001b[1;35m[mp4 @ 0xd28da0] \u001b[0m\u001b[0;33mCodec for stream 1 does not use global headers but container format requires global headers\n",
      "\u001b[0m\u001b[1;35m[mp4 @ 0xd27fe0] \u001b[0m\u001b[0;33mCodec for stream 0 does not use global headers but container format requires global headers\n",
      "\u001b[0m\u001b[1;35m[mp4 @ 0xd27fe0] \u001b[0m\u001b[0;33mCodec for stream 1 does not use global headers but container format requires global headers\n",
      "\u001b[0m\u001b[1;35m[mp4 @ 0xf78480] \u001b[0m\u001b[0;33mCodec for stream 0 does not use global headers but container format requires global headers\n",
      "\u001b[0m\u001b[1;35m[mp4 @ 0xf78480] \u001b[0m\u001b[0;33mCodec for stream 1 does not use global headers but container format requires global headers\n",
      "\u001b[0m\u001b[1;35m[mp4 @ 0xf79a40] \u001b[0m\u001b[0;33mCodec for stream 0 does not use global headers but container format requires global headers\n",
      "\u001b[0m\u001b[1;35m[mp4 @ 0xf79a40] \u001b[0m\u001b[0;33mCodec for stream 1 does not use global headers but container format requires global headers\n",
      "\u001b[0m\u001b[1;35m[mp4 @ 0xf7d0e0] \u001b[0m\u001b[0;33mCodec for stream 0 does not use global headers but container format requires global headers\n",
      "\u001b[0m\u001b[1;35m[mp4 @ 0xf7d0e0] \u001b[0m\u001b[0;33mCodec for stream 1 does not use global headers but container format requires global headers\n",
      "\u001b[0m\u001b[1;35m[mp4 @ 0xf78de0] \u001b[0m\u001b[0;33mCodec for stream 0 does not use global headers but container format requires global headers\n",
      "\u001b[0m\u001b[1;35m[mp4 @ 0xf78de0] \u001b[0m\u001b[0;33mCodec for stream 1 does not use global headers but container format requires global headers\n",
      "\u001b[0m\u001b[1;35m[mp4 @ 0xd274a0] \u001b[0m\u001b[0;33mCodec for stream 0 does not use global headers but container format requires global headers\n",
      "\u001b[0m\u001b[1;35m[mp4 @ 0xd274a0] \u001b[0m\u001b[0;33mCodec for stream 1 does not use global headers but container format requires global headers\n",
      "\u001b[0m\u001b[1;35m[mp4 @ 0xd274a0] \u001b[0m\u001b[0;33mCodec for stream 0 does not use global headers but container format requires global headers\n",
      "\u001b[0m\u001b[1;35m[mp4 @ 0xd274a0] \u001b[0m\u001b[0;33mCodec for stream 1 does not use global headers but container format requires global headers\n",
      "\u001b[0m\u001b[1;35m[mp4 @ 0xd274a0] \u001b[0m\u001b[0;33mCodec for stream 0 does not use global headers but container format requires global headers\n",
      "\u001b[0m\u001b[1;35m[mp4 @ 0xd274a0] \u001b[0m\u001b[0;33mCodec for stream 1 does not use global headers but container format requires global headers\n",
      "\u001b[0m\u001b[1;35m[mp4 @ 0xd274a0] \u001b[0m\u001b[0;33mCodec for stream 0 does not use global headers but container format requires global headers\n",
      "\u001b[0m\u001b[1;35m[mp4 @ 0xd274a0] \u001b[0m\u001b[0;33mCodec for stream 1 does not use global headers but container format requires global headers\n",
      "\u001b[0m\u001b[1;35m[mp4 @ 0xf7a6a0] \u001b[0m\u001b[0;33mCodec for stream 0 does not use global headers but container format requires global headers\n",
      "\u001b[0m\u001b[1;35m[mp4 @ 0xf7a6a0] \u001b[0m\u001b[0;33mCodec for stream 1 does not use global headers but container format requires global headers\n",
      "\u001b[0m\u001b[1;35m[mp4 @ 0xf7c080] \u001b[0m\u001b[0;33mCodec for stream 0 does not use global headers but container format requires global headers\n",
      "\u001b[0m\u001b[1;35m[mp4 @ 0xf7c080] \u001b[0m\u001b[0;33mCodec for stream 1 does not use global headers but container format requires global headers\n",
      "\u001b[0m\u001b[1;35m[mp4 @ 0xf7c080] \u001b[0m\u001b[0;33mCodec for stream 0 does not use global headers but container format requires global headers\n",
      "\u001b[0m\u001b[1;35m[mp4 @ 0xf7c080] \u001b[0m\u001b[0;33mCodec for stream 1 does not use global headers but container format requires global headers\n",
      "\u001b[0m\u001b[1;35m[mp4 @ 0xf77d00] \u001b[0m\u001b[0;33mCodec for stream 0 does not use global headers but container format requires global headers\n",
      "\u001b[0m\u001b[1;35m[mp4 @ 0xf77d00] \u001b[0m\u001b[0;33mCodec for stream 1 does not use global headers but container format requires global headers\n",
      "\u001b[0m\u001b[1;35m[mp4 @ 0xd27fe0] \u001b[0m\u001b[0;33mCodec for stream 0 does not use global headers but container format requires global headers\n",
      "\u001b[0m\u001b[1;35m[mp4 @ 0xd27fe0] \u001b[0m\u001b[0;33mCodec for stream 1 does not use global headers but container format requires global headers\n",
      "\u001b[0m\u001b[1;35m[mp4 @ 0xd27fe0] \u001b[0m\u001b[0;33mCodec for stream 0 does not use global headers but container format requires global headers\n",
      "\u001b[0m\u001b[1;35m[mp4 @ 0xd27fe0] \u001b[0m\u001b[0;33mCodec for stream 1 does not use global headers but container format requires global headers\n",
      "\u001b[0m\u001b[1;35m[mp4 @ 0xf7c0c0] \u001b[0m\u001b[0;33mCodec for stream 0 does not use global headers but container format requires global headers\n",
      "\u001b[0m\u001b[1;35m[mp4 @ 0xf7c0c0] \u001b[0m\u001b[0;33mCodec for stream 1 does not use global headers but container format requires global headers\n",
      "\u001b[0m\u001b[1;35m[mp4 @ 0xd284a0] \u001b[0m\u001b[0;33mCodec for stream 0 does not use global headers but container format requires global headers\n",
      "\u001b[0m\u001b[1;35m[mp4 @ 0xd284a0] \u001b[0m\u001b[0;33mCodec for stream 1 does not use global headers but container format requires global headers\n",
      "\u001b[0m\u001b[1;35m[mp4 @ 0xf7a240] \u001b[0m\u001b[0;33mCodec for stream 0 does not use global headers but container format requires global headers\n",
      "\u001b[0m\u001b[1;35m[mp4 @ 0xf7a240] \u001b[0m\u001b[0;33mCodec for stream 1 does not use global headers but container format requires global headers\n",
      "\u001b[0m\u001b[1;35m[mp4 @ 0xf79ae0] \u001b[0m\u001b[0;33mCodec for stream 0 does not use global headers but container format requires global headers\n",
      "\u001b[0m\u001b[1;35m[mp4 @ 0xf79ae0] \u001b[0m\u001b[0;33mCodec for stream 1 does not use global headers but container format requires global headers\n"
     ]
    },
    {
     "name": "stdout",
     "output_type": "stream",
     "text": [
      "\u001b[0m\u001b[1;35m[mp4 @ 0xd274a0] \u001b[0m\u001b[0;33mCodec for stream 0 does not use global headers but container format requires global headers\r\n",
      "\u001b[0m\u001b[1;35m[mp4 @ 0xd274a0] \u001b[0m\u001b[0;33mCodec for stream 1 does not use global headers but container format requires global headers\r\n",
      "\u001b[0m\u001b[1;35m[mp4 @ 0xd274a0] \u001b[0m\u001b[0;33mCodec for stream 0 does not use global headers but container format requires global headers\r\n",
      "\u001b[0m\u001b[1;35m[mp4 @ 0xd274a0] \u001b[0m\u001b[0;33mCodec for stream 1 does not use global headers but container format requires global headers\r\n",
      "\u001b[0mframe=  902 fps=0.0 q=-1.0 Lsize=N/A time=00:03:00.02 bitrate=N/A    \r\n",
      "video:22363kB audio:3100kB subtitle:0kB other streams:0kB global headers:0kB muxing overhead: unknown\r\n"
     ]
    }
   ],
   "source": [
    "!ffmpeg -i temp_sparse3.mp4 -c copy -map 0 -segment_time 00:00:02 -f segment temp/temp_output%03d.mp4"
   ]
  },
  {
   "cell_type": "code",
   "execution_count": 67,
   "metadata": {},
   "outputs": [
    {
     "name": "stdout",
     "output_type": "stream",
     "text": [
      "total 6285272\r\n",
      "-rw-rw-r-- 1 deathmetal124 deathmetal124   44154076 Aug 14  2018 temp.mp4\r\n",
      "-rw-r--r-- 1 deathmetal124 deathmetal124  105231437 Jun 19 19:46 highlights.mp4\r\n",
      "-rw-rw-r-- 1 deathmetal124 deathmetal124      10118 Jun 19 20:39 pose_preprocessing_scratch_v1.py\r\n",
      "-rw-rw-r-- 1 deathmetal124 deathmetal124       1993 Jun 19 20:39 pose_training.py\r\n",
      "-rw-rw-r-- 1 deathmetal124 deathmetal124       1522 Jun 19 20:39 pose_production.py\r\n",
      "-rwxr-xr-x 1 deathmetal124 deathmetal124     285421 Jun 19 21:46 pose_preprocessing_scratch_v1.ipynb\r\n",
      "-rw-r--r-- 1 deathmetal124 deathmetal124  306778730 Jun 19 21:52 highlights_v2.mp4\r\n",
      "-rw-r--r-- 1 deathmetal124 deathmetal124    1558641 Jun 20 04:31 pose_model_v1.p\r\n",
      "-rw-r--r-- 1 deathmetal124 deathmetal124  292690264 Jun 20 05:37 highlights_v3.mp4\r\n",
      "-rw-r--r-- 1 deathmetal124 deathmetal124  364120575 Jun 20 05:50 highlights_v4.mp4\r\n",
      "-rw-r--r-- 1 deathmetal124 deathmetal124    8353442 Jun 20 18:52 tennis_highlights.mp4\r\n",
      "-rw-r--r-- 1 deathmetal124 deathmetal124   34038626 Jun 20 21:00 tennis2_highlights.mp4\r\n",
      "-rw-r--r-- 1 deathmetal124 deathmetal124   95302464 Jun 21 00:08 tennis2_highlights_v2.mp4\r\n",
      "-rw-r--r-- 1 deathmetal124 deathmetal124  135995247 Jun 21 03:37 tennis2_highlights_v3.mp4\r\n",
      "-rw-r--r-- 1 deathmetal124 deathmetal124   86061711 Jun 21 06:39 badminton_local.mp4\r\n",
      "-rw-r--r-- 1 deathmetal124 deathmetal124       3209 Jun 24 17:08 pose_utils.py\r\n",
      "drwxr-xr-x 2 deathmetal124 deathmetal124       4096 Jun 24 17:08 __pycache__\r\n",
      "-rw-r--r-- 1 deathmetal124 deathmetal124    1948449 Jun 24 18:07 pose_model_v2.p\r\n",
      "-rw-rw-r-- 1 deathmetal124 deathmetal124  142090468 Jun 24 18:15 badminton_local_v2.mp4\r\n",
      "-rw-rw-r-- 1 deathmetal124 deathmetal124  345278207 Jun 24 22:27 badm001_v2.mp4\r\n",
      "-rw-r--r-- 1 deathmetal124 deathmetal124  437275773 Jun 25 05:02 badm002_v2.mp4\r\n",
      "-rw-r--r-- 1 deathmetal124 deathmetal124    1934049 Jun 25 05:11 pose_model_v3.p\r\n",
      "-rw-r--r-- 1 deathmetal124 deathmetal124 1180972894 Jun 25 05:34 local_v3.mp4\r\n",
      "-rw-r--r-- 1 deathmetal124 deathmetal124 2690251022 Jun 25 15:09 local_v4.mp4\r\n",
      "-rw-r--r-- 1 deathmetal124 deathmetal124   13073571 Jun 25 15:48 local_v4_down.mp4\r\n",
      "-rw-r--r-- 1 deathmetal124 deathmetal124    8251167 Jun 25 15:48 local_v4_down_fast.mp4\r\n",
      "-rw-r--r-- 1 deathmetal124 deathmetal124      75612 Jun 25 15:50 pose_production.ipynb\r\n",
      "-rw-rw-r-- 1 deathmetal124 deathmetal124      11893 Jun 27 05:46 pose_training_v1.ipynb\r\n",
      "-rw-rw-r-- 1 deathmetal124 deathmetal124   28979818 Jun 27 06:40 temp_clipped.mp4\r\n",
      "-rw-rw-r-- 1 deathmetal124 deathmetal124     135719 Jun 27 07:02 pose_model_v4.p\r\n",
      "-rw-rw-r-- 1 deathmetal124 deathmetal124   26129331 Jun 27 07:05 temp_sparse2.mp4\r\n",
      "-rw-rw-r-- 1 deathmetal124 deathmetal124   58478854 Jun 27 07:09 temp_sparse.mp4\r\n",
      "drwxrwxr-x 2 deathmetal124 deathmetal124       4096 Jun 27 07:12 temp_output\r\n",
      "-rw-rw-r-- 1 deathmetal124 deathmetal124     135847 Jun 27 07:42 pose_model_v5.p\r\n",
      "-rw-r--r-- 1 deathmetal124 deathmetal124      83444 Jun 27 07:46 pose_training_v2.ipynb\r\n",
      "-rw-rw-r-- 1 deathmetal124 deathmetal124     111625 Jun 27 07:48 pose_production_v2.ipynb\r\n",
      "-rw-rw-r-- 1 deathmetal124 deathmetal124     774809 Jun 27 07:48 temp_output000.mp4\r\n",
      "-rw-rw-r-- 1 deathmetal124 deathmetal124    1781107 Jun 27 07:48 temp_output001.mp4\r\n",
      "-rw-rw-r-- 1 deathmetal124 deathmetal124    1315810 Jun 27 07:48 temp_output002.mp4\r\n",
      "-rw-rw-r-- 1 deathmetal124 deathmetal124     831857 Jun 27 07:48 temp_output003.mp4\r\n",
      "-rw-rw-r-- 1 deathmetal124 deathmetal124     949396 Jun 27 07:48 temp_output004.mp4\r\n",
      "-rw-rw-r-- 1 deathmetal124 deathmetal124    1703262 Jun 27 07:48 temp_output005.mp4\r\n",
      "-rw-rw-r-- 1 deathmetal124 deathmetal124    2752540 Jun 27 07:48 temp_output006.mp4\r\n",
      "-rw-rw-r-- 1 deathmetal124 deathmetal124     895004 Jun 27 07:48 temp_output007.mp4\r\n",
      "-rw-rw-r-- 1 deathmetal124 deathmetal124    1205228 Jun 27 07:48 temp_output008.mp4\r\n",
      "-rw-rw-r-- 1 deathmetal124 deathmetal124    1594289 Jun 27 07:48 temp_output009.mp4\r\n",
      "-rw-rw-r-- 1 deathmetal124 deathmetal124     528364 Jun 27 07:48 temp_output010.mp4\r\n",
      "-rw-rw-r-- 1 deathmetal124 deathmetal124    1174511 Jun 27 07:48 temp_output011.mp4\r\n",
      "-rw-rw-r-- 1 deathmetal124 deathmetal124    1874320 Jun 27 07:48 temp_output012.mp4\r\n",
      "-rw-rw-r-- 1 deathmetal124 deathmetal124     957264 Jun 27 07:48 temp_output013.mp4\r\n",
      "-rw-rw-r-- 1 deathmetal124 deathmetal124     189055 Jun 27 07:48 temp_output015.mp4\r\n",
      "-rw-rw-r-- 1 deathmetal124 deathmetal124    1201501 Jun 27 07:48 temp_output014.mp4\r\n",
      "-rw-rw-r-- 1 deathmetal124 deathmetal124     308147 Jun 27 07:48 temp_output016.mp4\r\n",
      "-rw-rw-r-- 1 deathmetal124 deathmetal124    1032246 Jun 27 07:48 temp_output017.mp4\r\n",
      "-rw-rw-r-- 1 deathmetal124 deathmetal124     625892 Jun 27 07:48 temp_output018.mp4\r\n",
      "-rw-rw-r-- 1 deathmetal124 deathmetal124    1728209 Jun 27 07:48 temp_output019.mp4\r\n",
      "-rw-rw-r-- 1 deathmetal124 deathmetal124     314091 Jun 27 07:48 temp_output020.mp4\r\n",
      "-rw-rw-r-- 1 deathmetal124 deathmetal124     650315 Jun 27 07:48 temp_output022.mp4\r\n",
      "-rw-rw-r-- 1 deathmetal124 deathmetal124     837715 Jun 27 07:48 temp_output021.mp4\r\n",
      "-rw-rw-r-- 1 deathmetal124 deathmetal124     935104 Jun 27 07:48 temp_output023.mp4\r\n"
     ]
    }
   ],
   "source": [
    "!ls -lrt"
   ]
  },
  {
   "cell_type": "code",
   "execution_count": 16,
   "metadata": {
    "scrolled": true
   },
   "outputs": [
    {
     "name": "stdout",
     "output_type": "stream",
     "text": [
      "total 6176688\r\n",
      "-rw-rw-r-- 1 deathmetal124 deathmetal124   44154076 Aug 14  2018 temp.mp4\r\n",
      "-rw-r--r-- 1 deathmetal124 deathmetal124  105231437 Jun 19 19:46 highlights.mp4\r\n",
      "-rw-rw-r-- 1 deathmetal124 deathmetal124      10118 Jun 19 20:39 pose_preprocessing_scratch_v1.py\r\n",
      "-rw-rw-r-- 1 deathmetal124 deathmetal124       1993 Jun 19 20:39 pose_training.py\r\n",
      "-rw-rw-r-- 1 deathmetal124 deathmetal124       1522 Jun 19 20:39 pose_production.py\r\n",
      "-rwxr-xr-x 1 deathmetal124 deathmetal124     285421 Jun 19 21:46 pose_preprocessing_scratch_v1.ipynb\r\n",
      "-rw-r--r-- 1 deathmetal124 deathmetal124  306778730 Jun 19 21:52 highlights_v2.mp4\r\n",
      "-rw-r--r-- 1 deathmetal124 deathmetal124    1558641 Jun 20 04:31 pose_model_v1.p\r\n",
      "-rw-r--r-- 1 deathmetal124 deathmetal124  292690264 Jun 20 05:37 highlights_v3.mp4\r\n",
      "-rw-r--r-- 1 deathmetal124 deathmetal124  364120575 Jun 20 05:50 highlights_v4.mp4\r\n",
      "-rw-r--r-- 1 deathmetal124 deathmetal124    8353442 Jun 20 18:52 tennis_highlights.mp4\r\n",
      "-rw-r--r-- 1 deathmetal124 deathmetal124   34038626 Jun 20 21:00 tennis2_highlights.mp4\r\n",
      "-rw-r--r-- 1 deathmetal124 deathmetal124   95302464 Jun 21 00:08 tennis2_highlights_v2.mp4\r\n",
      "-rw-r--r-- 1 deathmetal124 deathmetal124  135995247 Jun 21 03:37 tennis2_highlights_v3.mp4\r\n",
      "-rw-r--r-- 1 deathmetal124 deathmetal124   86061711 Jun 21 06:39 badminton_local.mp4\r\n",
      "-rw-r--r-- 1 deathmetal124 deathmetal124       3209 Jun 24 17:08 pose_utils.py\r\n",
      "drwxr-xr-x 2 deathmetal124 deathmetal124       4096 Jun 24 17:08 __pycache__\r\n",
      "-rw-r--r-- 1 deathmetal124 deathmetal124    1948449 Jun 24 18:07 pose_model_v2.p\r\n",
      "-rw-rw-r-- 1 deathmetal124 deathmetal124  142090468 Jun 24 18:15 badminton_local_v2.mp4\r\n",
      "-rw-rw-r-- 1 deathmetal124 deathmetal124  345278207 Jun 24 22:27 badm001_v2.mp4\r\n",
      "-rw-r--r-- 1 deathmetal124 deathmetal124  437275773 Jun 25 05:02 badm002_v2.mp4\r\n",
      "-rw-r--r-- 1 deathmetal124 deathmetal124    1934049 Jun 25 05:11 pose_model_v3.p\r\n",
      "-rw-r--r-- 1 deathmetal124 deathmetal124 1180972894 Jun 25 05:34 local_v3.mp4\r\n",
      "-rw-r--r-- 1 deathmetal124 deathmetal124 2690251022 Jun 25 15:09 local_v4.mp4\r\n",
      "-rw-r--r-- 1 deathmetal124 deathmetal124   13073571 Jun 25 15:48 local_v4_down.mp4\r\n",
      "-rw-r--r-- 1 deathmetal124 deathmetal124    8251167 Jun 25 15:48 local_v4_down_fast.mp4\r\n",
      "-rw-r--r-- 1 deathmetal124 deathmetal124      75612 Jun 25 15:50 pose_production.ipynb\r\n",
      "-rw-rw-r-- 1 deathmetal124 deathmetal124      11893 Jun 27 05:46 pose_training_v1.ipynb\r\n",
      "-rw-rw-r-- 1 deathmetal124 deathmetal124      76455 Jun 27 06:38 pose_production_v2.ipynb\r\n",
      "-rw-r--r-- 1 deathmetal124 deathmetal124      37118 Jun 27 06:38 pose_training_v2.ipynb\r\n",
      "-rw-rw-r-- 1 deathmetal124 deathmetal124   28979818 Jun 27 06:40 temp_clipped.mp4\r\n"
     ]
    }
   ],
   "source": [
    "!ls -lrt"
   ]
  },
  {
   "cell_type": "code",
   "execution_count": 40,
   "metadata": {},
   "outputs": [],
   "source": [
    "import os\n",
    "os.chdir('/mnt/disks/cricket-highlights/anvesh/AlphaPose')\n"
   ]
  },
  {
   "cell_type": "code",
   "execution_count": 41,
   "metadata": {},
   "outputs": [
    {
     "name": "stdout",
     "output_type": "stream",
     "text": [
      "Loading YOLO model..\n",
      "Loading pose model from ./models/sppe/duc_se.pth\n",
      "100%|█████████████████████████████████████████| 902/902 [02:29<00:00,  6.01it/s]\n",
      "===========================> Finish Model Running.\n"
     ]
    }
   ],
   "source": [
    "!python video_demo.py --video custom_code/temp_sparse2.mp4 --outdir custom_code/temp_output   --conf 0.5 --nms 0.45 --sp --detbatch 2 --inp_dim 480"
   ]
  },
  {
   "cell_type": "code",
   "execution_count": 44,
   "metadata": {},
   "outputs": [],
   "source": [
    "df = pd.read_json('custom_code/temp_output/alphapose-results.json')"
   ]
  },
  {
   "cell_type": "code",
   "execution_count": 45,
   "metadata": {
    "scrolled": true
   },
   "outputs": [
    {
     "data": {
      "text/html": [
       "<div>\n",
       "<style scoped>\n",
       "    .dataframe tbody tr th:only-of-type {\n",
       "        vertical-align: middle;\n",
       "    }\n",
       "\n",
       "    .dataframe tbody tr th {\n",
       "        vertical-align: top;\n",
       "    }\n",
       "\n",
       "    .dataframe thead th {\n",
       "        text-align: right;\n",
       "    }\n",
       "</style>\n",
       "<table border=\"1\" class=\"dataframe\">\n",
       "  <thead>\n",
       "    <tr style=\"text-align: right;\">\n",
       "      <th></th>\n",
       "      <th>category_id</th>\n",
       "      <th>image_id</th>\n",
       "      <th>keypoints</th>\n",
       "      <th>score</th>\n",
       "    </tr>\n",
       "  </thead>\n",
       "  <tbody>\n",
       "    <tr>\n",
       "      <th>0</th>\n",
       "      <td>1</td>\n",
       "      <td>0.jpg</td>\n",
       "      <td>[701.8876953125, 164.40028381347656, 0.0117313...</td>\n",
       "      <td>2.750624</td>\n",
       "    </tr>\n",
       "    <tr>\n",
       "      <th>1</th>\n",
       "      <td>1</td>\n",
       "      <td>1.jpg</td>\n",
       "      <td>[701.8637084960938, 164.42555236816406, 0.0117...</td>\n",
       "      <td>2.750374</td>\n",
       "    </tr>\n",
       "    <tr>\n",
       "      <th>2</th>\n",
       "      <td>1</td>\n",
       "      <td>2.jpg</td>\n",
       "      <td>[701.8494262695312, 164.40281677246094, 0.0120...</td>\n",
       "      <td>2.750097</td>\n",
       "    </tr>\n",
       "    <tr>\n",
       "      <th>3</th>\n",
       "      <td>1</td>\n",
       "      <td>3.jpg</td>\n",
       "      <td>[701.8538208007812, 164.44248962402344, 0.0120...</td>\n",
       "      <td>2.750251</td>\n",
       "    </tr>\n",
       "    <tr>\n",
       "      <th>4</th>\n",
       "      <td>1</td>\n",
       "      <td>4.jpg</td>\n",
       "      <td>[701.8947143554688, 164.3902130126953, 0.01205...</td>\n",
       "      <td>2.749918</td>\n",
       "    </tr>\n",
       "    <tr>\n",
       "      <th>5</th>\n",
       "      <td>1</td>\n",
       "      <td>5.jpg</td>\n",
       "      <td>[701.8939819335938, 164.45892333984375, 0.0120...</td>\n",
       "      <td>2.749854</td>\n",
       "    </tr>\n",
       "    <tr>\n",
       "      <th>6</th>\n",
       "      <td>1</td>\n",
       "      <td>6.jpg</td>\n",
       "      <td>[688.6558227539062, 159.0297088623047, 0.01033...</td>\n",
       "      <td>2.757376</td>\n",
       "    </tr>\n",
       "    <tr>\n",
       "      <th>7</th>\n",
       "      <td>1</td>\n",
       "      <td>7.jpg</td>\n",
       "      <td>[701.6626586914062, 157.10646057128906, 0.0087...</td>\n",
       "      <td>2.757284</td>\n",
       "    </tr>\n",
       "    <tr>\n",
       "      <th>8</th>\n",
       "      <td>1</td>\n",
       "      <td>8.jpg</td>\n",
       "      <td>[702.0526733398438, 166.69593811035156, 0.0140...</td>\n",
       "      <td>2.720585</td>\n",
       "    </tr>\n",
       "    <tr>\n",
       "      <th>9</th>\n",
       "      <td>1</td>\n",
       "      <td>9.jpg</td>\n",
       "      <td>[698.9608764648438, 181.81100463867188, 0.1481...</td>\n",
       "      <td>2.671464</td>\n",
       "    </tr>\n",
       "    <tr>\n",
       "      <th>10</th>\n",
       "      <td>1</td>\n",
       "      <td>10.jpg</td>\n",
       "      <td>[698.5477905273438, 170.0131378173828, 0.47919...</td>\n",
       "      <td>2.746152</td>\n",
       "    </tr>\n",
       "    <tr>\n",
       "      <th>11</th>\n",
       "      <td>1</td>\n",
       "      <td>11.jpg</td>\n",
       "      <td>[707.93994140625, 170.5475616455078, 0.3194510...</td>\n",
       "      <td>2.805044</td>\n",
       "    </tr>\n",
       "    <tr>\n",
       "      <th>12</th>\n",
       "      <td>1</td>\n",
       "      <td>12.jpg</td>\n",
       "      <td>[704.5535278320312, 161.0208282470703, 0.28460...</td>\n",
       "      <td>2.783197</td>\n",
       "    </tr>\n",
       "    <tr>\n",
       "      <th>13</th>\n",
       "      <td>1</td>\n",
       "      <td>13.jpg</td>\n",
       "      <td>[710.7980346679688, 148.80711364746094, 0.6065...</td>\n",
       "      <td>2.722736</td>\n",
       "    </tr>\n",
       "    <tr>\n",
       "      <th>14</th>\n",
       "      <td>1</td>\n",
       "      <td>14.jpg</td>\n",
       "      <td>[704.072509765625, 146.5944061279297, 0.860691...</td>\n",
       "      <td>2.682442</td>\n",
       "    </tr>\n",
       "    <tr>\n",
       "      <th>15</th>\n",
       "      <td>1</td>\n",
       "      <td>15.jpg</td>\n",
       "      <td>[684.4703979492188, 156.53187561035156, 0.8746...</td>\n",
       "      <td>2.721255</td>\n",
       "    </tr>\n",
       "    <tr>\n",
       "      <th>16</th>\n",
       "      <td>1</td>\n",
       "      <td>16.jpg</td>\n",
       "      <td>[768.8451538085938, 285.94390869140625, 0.0046...</td>\n",
       "      <td>2.224297</td>\n",
       "    </tr>\n",
       "    <tr>\n",
       "      <th>17</th>\n",
       "      <td>1</td>\n",
       "      <td>17.jpg</td>\n",
       "      <td>[825.6522827148438, 338.38153076171875, 0.0030...</td>\n",
       "      <td>2.091059</td>\n",
       "    </tr>\n",
       "    <tr>\n",
       "      <th>18</th>\n",
       "      <td>1</td>\n",
       "      <td>18.jpg</td>\n",
       "      <td>[714.33349609375, 338.39697265625, 0.002959433...</td>\n",
       "      <td>2.133594</td>\n",
       "    </tr>\n",
       "    <tr>\n",
       "      <th>19</th>\n",
       "      <td>1</td>\n",
       "      <td>19.jpg</td>\n",
       "      <td>[741.5294189453125, 263.21282958984375, 0.0034...</td>\n",
       "      <td>2.014258</td>\n",
       "    </tr>\n",
       "    <tr>\n",
       "      <th>20</th>\n",
       "      <td>1</td>\n",
       "      <td>20.jpg</td>\n",
       "      <td>[707.9906616210938, 307.88275146484375, 0.0249...</td>\n",
       "      <td>2.016774</td>\n",
       "    </tr>\n",
       "    <tr>\n",
       "      <th>21</th>\n",
       "      <td>1</td>\n",
       "      <td>21.jpg</td>\n",
       "      <td>[669.5386352539062, 373.1805419921875, 0.04128...</td>\n",
       "      <td>2.076821</td>\n",
       "    </tr>\n",
       "    <tr>\n",
       "      <th>22</th>\n",
       "      <td>1</td>\n",
       "      <td>22.jpg</td>\n",
       "      <td>[693.938720703125, 425.5901184082031, 0.807593...</td>\n",
       "      <td>2.239239</td>\n",
       "    </tr>\n",
       "    <tr>\n",
       "      <th>23</th>\n",
       "      <td>1</td>\n",
       "      <td>23.jpg</td>\n",
       "      <td>[527.2230224609375, 607.2130737304688, 0.00215...</td>\n",
       "      <td>2.104079</td>\n",
       "    </tr>\n",
       "    <tr>\n",
       "      <th>24</th>\n",
       "      <td>1</td>\n",
       "      <td>23.jpg</td>\n",
       "      <td>[685.7526245117188, 455.9333801269531, 0.82005...</td>\n",
       "      <td>2.197981</td>\n",
       "    </tr>\n",
       "    <tr>\n",
       "      <th>25</th>\n",
       "      <td>1</td>\n",
       "      <td>24.jpg</td>\n",
       "      <td>[630.775146484375, 415.6210632324219, 0.695920...</td>\n",
       "      <td>2.057708</td>\n",
       "    </tr>\n",
       "    <tr>\n",
       "      <th>26</th>\n",
       "      <td>1</td>\n",
       "      <td>25.jpg</td>\n",
       "      <td>[592.5374145507812, 373.31744384765625, 0.8590...</td>\n",
       "      <td>2.244775</td>\n",
       "    </tr>\n",
       "    <tr>\n",
       "      <th>27</th>\n",
       "      <td>1</td>\n",
       "      <td>25.jpg</td>\n",
       "      <td>[716.99365234375, 343.02252197265625, 0.011288...</td>\n",
       "      <td>1.742708</td>\n",
       "    </tr>\n",
       "    <tr>\n",
       "      <th>28</th>\n",
       "      <td>1</td>\n",
       "      <td>26.jpg</td>\n",
       "      <td>[554.19140625, 417.3573913574219, 0.8816753029...</td>\n",
       "      <td>2.302401</td>\n",
       "    </tr>\n",
       "    <tr>\n",
       "      <th>29</th>\n",
       "      <td>1</td>\n",
       "      <td>27.jpg</td>\n",
       "      <td>[596.6031494140625, 432.8953857421875, 0.83698...</td>\n",
       "      <td>2.036951</td>\n",
       "    </tr>\n",
       "    <tr>\n",
       "      <th>...</th>\n",
       "      <td>...</td>\n",
       "      <td>...</td>\n",
       "      <td>...</td>\n",
       "      <td>...</td>\n",
       "    </tr>\n",
       "    <tr>\n",
       "      <th>2312</th>\n",
       "      <td>1</td>\n",
       "      <td>885.jpg</td>\n",
       "      <td>[868.0211181640625, 215.00706481933594, 0.2528...</td>\n",
       "      <td>1.299606</td>\n",
       "    </tr>\n",
       "    <tr>\n",
       "      <th>2313</th>\n",
       "      <td>1</td>\n",
       "      <td>886.jpg</td>\n",
       "      <td>[683.7855834960938, 182.6031951904297, 0.82875...</td>\n",
       "      <td>2.769942</td>\n",
       "    </tr>\n",
       "    <tr>\n",
       "      <th>2314</th>\n",
       "      <td>1</td>\n",
       "      <td>886.jpg</td>\n",
       "      <td>[868.0770263671875, 180.3828887939453, 0.01315...</td>\n",
       "      <td>2.593018</td>\n",
       "    </tr>\n",
       "    <tr>\n",
       "      <th>2315</th>\n",
       "      <td>1</td>\n",
       "      <td>887.jpg</td>\n",
       "      <td>[658.388427734375, 165.8268585205078, 0.174667...</td>\n",
       "      <td>2.603405</td>\n",
       "    </tr>\n",
       "    <tr>\n",
       "      <th>2316</th>\n",
       "      <td>1</td>\n",
       "      <td>887.jpg</td>\n",
       "      <td>[888.3424072265625, 209.96910095214844, 0.0300...</td>\n",
       "      <td>2.507613</td>\n",
       "    </tr>\n",
       "    <tr>\n",
       "      <th>2317</th>\n",
       "      <td>1</td>\n",
       "      <td>888.jpg</td>\n",
       "      <td>[634.170166015625, 169.61099243164062, 0.87685...</td>\n",
       "      <td>2.699644</td>\n",
       "    </tr>\n",
       "    <tr>\n",
       "      <th>2318</th>\n",
       "      <td>1</td>\n",
       "      <td>888.jpg</td>\n",
       "      <td>[908.0208129882812, 244.91217041015625, 0.0301...</td>\n",
       "      <td>2.410222</td>\n",
       "    </tr>\n",
       "    <tr>\n",
       "      <th>2319</th>\n",
       "      <td>1</td>\n",
       "      <td>888.jpg</td>\n",
       "      <td>[882.4406127929688, 119.85665130615234, 0.7530...</td>\n",
       "      <td>1.805358</td>\n",
       "    </tr>\n",
       "    <tr>\n",
       "      <th>2320</th>\n",
       "      <td>1</td>\n",
       "      <td>889.jpg</td>\n",
       "      <td>[627.6400146484375, 187.29473876953125, 0.8734...</td>\n",
       "      <td>2.691739</td>\n",
       "    </tr>\n",
       "    <tr>\n",
       "      <th>2321</th>\n",
       "      <td>1</td>\n",
       "      <td>889.jpg</td>\n",
       "      <td>[918.8851318359375, 223.17428588867188, 0.0086...</td>\n",
       "      <td>2.462000</td>\n",
       "    </tr>\n",
       "    <tr>\n",
       "      <th>2322</th>\n",
       "      <td>1</td>\n",
       "      <td>890.jpg</td>\n",
       "      <td>[622.3638305664062, 185.8801727294922, 0.85971...</td>\n",
       "      <td>2.707934</td>\n",
       "    </tr>\n",
       "    <tr>\n",
       "      <th>2323</th>\n",
       "      <td>1</td>\n",
       "      <td>890.jpg</td>\n",
       "      <td>[934.8080444335938, 206.32884216308594, 0.0106...</td>\n",
       "      <td>2.692437</td>\n",
       "    </tr>\n",
       "    <tr>\n",
       "      <th>2324</th>\n",
       "      <td>1</td>\n",
       "      <td>891.jpg</td>\n",
       "      <td>[620.062744140625, 191.48789978027344, 0.77156...</td>\n",
       "      <td>2.635549</td>\n",
       "    </tr>\n",
       "    <tr>\n",
       "      <th>2325</th>\n",
       "      <td>1</td>\n",
       "      <td>891.jpg</td>\n",
       "      <td>[943.7509155273438, 198.10633850097656, 0.0094...</td>\n",
       "      <td>2.702347</td>\n",
       "    </tr>\n",
       "    <tr>\n",
       "      <th>2326</th>\n",
       "      <td>1</td>\n",
       "      <td>892.jpg</td>\n",
       "      <td>[932.1074829101562, 187.18695068359375, 0.0065...</td>\n",
       "      <td>2.756653</td>\n",
       "    </tr>\n",
       "    <tr>\n",
       "      <th>2327</th>\n",
       "      <td>1</td>\n",
       "      <td>892.jpg</td>\n",
       "      <td>[638.174072265625, 206.23077392578125, 0.56219...</td>\n",
       "      <td>2.543700</td>\n",
       "    </tr>\n",
       "    <tr>\n",
       "      <th>2328</th>\n",
       "      <td>1</td>\n",
       "      <td>893.jpg</td>\n",
       "      <td>[891.2996215820312, 198.0248260498047, 0.00418...</td>\n",
       "      <td>2.725043</td>\n",
       "    </tr>\n",
       "    <tr>\n",
       "      <th>2329</th>\n",
       "      <td>1</td>\n",
       "      <td>893.jpg</td>\n",
       "      <td>[646.0745239257812, 222.89097595214844, 0.4331...</td>\n",
       "      <td>2.522094</td>\n",
       "    </tr>\n",
       "    <tr>\n",
       "      <th>2330</th>\n",
       "      <td>1</td>\n",
       "      <td>894.jpg</td>\n",
       "      <td>[862.9724731445312, 213.43516540527344, 0.0052...</td>\n",
       "      <td>2.772650</td>\n",
       "    </tr>\n",
       "    <tr>\n",
       "      <th>2331</th>\n",
       "      <td>1</td>\n",
       "      <td>894.jpg</td>\n",
       "      <td>[679.8024291992188, 227.19920349121094, 0.0068...</td>\n",
       "      <td>2.581975</td>\n",
       "    </tr>\n",
       "    <tr>\n",
       "      <th>2332</th>\n",
       "      <td>1</td>\n",
       "      <td>895.jpg</td>\n",
       "      <td>[846.9761352539062, 212.21458435058594, 0.0056...</td>\n",
       "      <td>2.670208</td>\n",
       "    </tr>\n",
       "    <tr>\n",
       "      <th>2333</th>\n",
       "      <td>1</td>\n",
       "      <td>896.jpg</td>\n",
       "      <td>[781.3079223632812, 246.43359375, 0.0048320912...</td>\n",
       "      <td>2.698262</td>\n",
       "    </tr>\n",
       "    <tr>\n",
       "      <th>2334</th>\n",
       "      <td>1</td>\n",
       "      <td>896.jpg</td>\n",
       "      <td>[701.103759765625, 261.5772705078125, 0.365863...</td>\n",
       "      <td>1.813662</td>\n",
       "    </tr>\n",
       "    <tr>\n",
       "      <th>2335</th>\n",
       "      <td>1</td>\n",
       "      <td>897.jpg</td>\n",
       "      <td>[676.0426025390625, 267.42138671875, 0.3592729...</td>\n",
       "      <td>2.736201</td>\n",
       "    </tr>\n",
       "    <tr>\n",
       "      <th>2336</th>\n",
       "      <td>1</td>\n",
       "      <td>898.jpg</td>\n",
       "      <td>[685.318359375, 287.1258544921875, 0.153927564...</td>\n",
       "      <td>2.725648</td>\n",
       "    </tr>\n",
       "    <tr>\n",
       "      <th>2337</th>\n",
       "      <td>1</td>\n",
       "      <td>899.jpg</td>\n",
       "      <td>[695.4967041015625, 181.20809936523438, 0.7735...</td>\n",
       "      <td>2.615923</td>\n",
       "    </tr>\n",
       "    <tr>\n",
       "      <th>2338</th>\n",
       "      <td>1</td>\n",
       "      <td>900.jpg</td>\n",
       "      <td>[644.4263916015625, 116.96923065185547, 0.6874...</td>\n",
       "      <td>2.610276</td>\n",
       "    </tr>\n",
       "    <tr>\n",
       "      <th>2339</th>\n",
       "      <td>1</td>\n",
       "      <td>901.jpg</td>\n",
       "      <td>[603.9205932617188, 85.0604476928711, 0.844307...</td>\n",
       "      <td>2.708039</td>\n",
       "    </tr>\n",
       "    <tr>\n",
       "      <th>2340</th>\n",
       "      <td>1</td>\n",
       "      <td>901.jpg</td>\n",
       "      <td>[1042.428466796875, 80.59205627441406, 0.39247...</td>\n",
       "      <td>2.034473</td>\n",
       "    </tr>\n",
       "    <tr>\n",
       "      <th>2341</th>\n",
       "      <td>1</td>\n",
       "      <td>901.jpg</td>\n",
       "      <td>[402.8118896484375, 41.2772331237793, 0.768617...</td>\n",
       "      <td>1.869536</td>\n",
       "    </tr>\n",
       "  </tbody>\n",
       "</table>\n",
       "<p>2342 rows × 4 columns</p>\n",
       "</div>"
      ],
      "text/plain": [
       "      category_id image_id                                          keypoints  \\\n",
       "0               1    0.jpg  [701.8876953125, 164.40028381347656, 0.0117313...   \n",
       "1               1    1.jpg  [701.8637084960938, 164.42555236816406, 0.0117...   \n",
       "2               1    2.jpg  [701.8494262695312, 164.40281677246094, 0.0120...   \n",
       "3               1    3.jpg  [701.8538208007812, 164.44248962402344, 0.0120...   \n",
       "4               1    4.jpg  [701.8947143554688, 164.3902130126953, 0.01205...   \n",
       "5               1    5.jpg  [701.8939819335938, 164.45892333984375, 0.0120...   \n",
       "6               1    6.jpg  [688.6558227539062, 159.0297088623047, 0.01033...   \n",
       "7               1    7.jpg  [701.6626586914062, 157.10646057128906, 0.0087...   \n",
       "8               1    8.jpg  [702.0526733398438, 166.69593811035156, 0.0140...   \n",
       "9               1    9.jpg  [698.9608764648438, 181.81100463867188, 0.1481...   \n",
       "10              1   10.jpg  [698.5477905273438, 170.0131378173828, 0.47919...   \n",
       "11              1   11.jpg  [707.93994140625, 170.5475616455078, 0.3194510...   \n",
       "12              1   12.jpg  [704.5535278320312, 161.0208282470703, 0.28460...   \n",
       "13              1   13.jpg  [710.7980346679688, 148.80711364746094, 0.6065...   \n",
       "14              1   14.jpg  [704.072509765625, 146.5944061279297, 0.860691...   \n",
       "15              1   15.jpg  [684.4703979492188, 156.53187561035156, 0.8746...   \n",
       "16              1   16.jpg  [768.8451538085938, 285.94390869140625, 0.0046...   \n",
       "17              1   17.jpg  [825.6522827148438, 338.38153076171875, 0.0030...   \n",
       "18              1   18.jpg  [714.33349609375, 338.39697265625, 0.002959433...   \n",
       "19              1   19.jpg  [741.5294189453125, 263.21282958984375, 0.0034...   \n",
       "20              1   20.jpg  [707.9906616210938, 307.88275146484375, 0.0249...   \n",
       "21              1   21.jpg  [669.5386352539062, 373.1805419921875, 0.04128...   \n",
       "22              1   22.jpg  [693.938720703125, 425.5901184082031, 0.807593...   \n",
       "23              1   23.jpg  [527.2230224609375, 607.2130737304688, 0.00215...   \n",
       "24              1   23.jpg  [685.7526245117188, 455.9333801269531, 0.82005...   \n",
       "25              1   24.jpg  [630.775146484375, 415.6210632324219, 0.695920...   \n",
       "26              1   25.jpg  [592.5374145507812, 373.31744384765625, 0.8590...   \n",
       "27              1   25.jpg  [716.99365234375, 343.02252197265625, 0.011288...   \n",
       "28              1   26.jpg  [554.19140625, 417.3573913574219, 0.8816753029...   \n",
       "29              1   27.jpg  [596.6031494140625, 432.8953857421875, 0.83698...   \n",
       "...           ...      ...                                                ...   \n",
       "2312            1  885.jpg  [868.0211181640625, 215.00706481933594, 0.2528...   \n",
       "2313            1  886.jpg  [683.7855834960938, 182.6031951904297, 0.82875...   \n",
       "2314            1  886.jpg  [868.0770263671875, 180.3828887939453, 0.01315...   \n",
       "2315            1  887.jpg  [658.388427734375, 165.8268585205078, 0.174667...   \n",
       "2316            1  887.jpg  [888.3424072265625, 209.96910095214844, 0.0300...   \n",
       "2317            1  888.jpg  [634.170166015625, 169.61099243164062, 0.87685...   \n",
       "2318            1  888.jpg  [908.0208129882812, 244.91217041015625, 0.0301...   \n",
       "2319            1  888.jpg  [882.4406127929688, 119.85665130615234, 0.7530...   \n",
       "2320            1  889.jpg  [627.6400146484375, 187.29473876953125, 0.8734...   \n",
       "2321            1  889.jpg  [918.8851318359375, 223.17428588867188, 0.0086...   \n",
       "2322            1  890.jpg  [622.3638305664062, 185.8801727294922, 0.85971...   \n",
       "2323            1  890.jpg  [934.8080444335938, 206.32884216308594, 0.0106...   \n",
       "2324            1  891.jpg  [620.062744140625, 191.48789978027344, 0.77156...   \n",
       "2325            1  891.jpg  [943.7509155273438, 198.10633850097656, 0.0094...   \n",
       "2326            1  892.jpg  [932.1074829101562, 187.18695068359375, 0.0065...   \n",
       "2327            1  892.jpg  [638.174072265625, 206.23077392578125, 0.56219...   \n",
       "2328            1  893.jpg  [891.2996215820312, 198.0248260498047, 0.00418...   \n",
       "2329            1  893.jpg  [646.0745239257812, 222.89097595214844, 0.4331...   \n",
       "2330            1  894.jpg  [862.9724731445312, 213.43516540527344, 0.0052...   \n",
       "2331            1  894.jpg  [679.8024291992188, 227.19920349121094, 0.0068...   \n",
       "2332            1  895.jpg  [846.9761352539062, 212.21458435058594, 0.0056...   \n",
       "2333            1  896.jpg  [781.3079223632812, 246.43359375, 0.0048320912...   \n",
       "2334            1  896.jpg  [701.103759765625, 261.5772705078125, 0.365863...   \n",
       "2335            1  897.jpg  [676.0426025390625, 267.42138671875, 0.3592729...   \n",
       "2336            1  898.jpg  [685.318359375, 287.1258544921875, 0.153927564...   \n",
       "2337            1  899.jpg  [695.4967041015625, 181.20809936523438, 0.7735...   \n",
       "2338            1  900.jpg  [644.4263916015625, 116.96923065185547, 0.6874...   \n",
       "2339            1  901.jpg  [603.9205932617188, 85.0604476928711, 0.844307...   \n",
       "2340            1  901.jpg  [1042.428466796875, 80.59205627441406, 0.39247...   \n",
       "2341            1  901.jpg  [402.8118896484375, 41.2772331237793, 0.768617...   \n",
       "\n",
       "         score  \n",
       "0     2.750624  \n",
       "1     2.750374  \n",
       "2     2.750097  \n",
       "3     2.750251  \n",
       "4     2.749918  \n",
       "5     2.749854  \n",
       "6     2.757376  \n",
       "7     2.757284  \n",
       "8     2.720585  \n",
       "9     2.671464  \n",
       "10    2.746152  \n",
       "11    2.805044  \n",
       "12    2.783197  \n",
       "13    2.722736  \n",
       "14    2.682442  \n",
       "15    2.721255  \n",
       "16    2.224297  \n",
       "17    2.091059  \n",
       "18    2.133594  \n",
       "19    2.014258  \n",
       "20    2.016774  \n",
       "21    2.076821  \n",
       "22    2.239239  \n",
       "23    2.104079  \n",
       "24    2.197981  \n",
       "25    2.057708  \n",
       "26    2.244775  \n",
       "27    1.742708  \n",
       "28    2.302401  \n",
       "29    2.036951  \n",
       "...        ...  \n",
       "2312  1.299606  \n",
       "2313  2.769942  \n",
       "2314  2.593018  \n",
       "2315  2.603405  \n",
       "2316  2.507613  \n",
       "2317  2.699644  \n",
       "2318  2.410222  \n",
       "2319  1.805358  \n",
       "2320  2.691739  \n",
       "2321  2.462000  \n",
       "2322  2.707934  \n",
       "2323  2.692437  \n",
       "2324  2.635549  \n",
       "2325  2.702347  \n",
       "2326  2.756653  \n",
       "2327  2.543700  \n",
       "2328  2.725043  \n",
       "2329  2.522094  \n",
       "2330  2.772650  \n",
       "2331  2.581975  \n",
       "2332  2.670208  \n",
       "2333  2.698262  \n",
       "2334  1.813662  \n",
       "2335  2.736201  \n",
       "2336  2.725648  \n",
       "2337  2.615923  \n",
       "2338  2.610276  \n",
       "2339  2.708039  \n",
       "2340  2.034473  \n",
       "2341  1.869536  \n",
       "\n",
       "[2342 rows x 4 columns]"
      ]
     },
     "execution_count": 45,
     "metadata": {},
     "output_type": "execute_result"
    }
   ],
   "source": [
    "df"
   ]
  },
  {
   "cell_type": "code",
   "execution_count": 105,
   "metadata": {},
   "outputs": [
    {
     "name": "stdout",
     "output_type": "stream",
     "text": [
      "custom_code\t      fn.py\t      PoseFlow\t\ttrain_sppe\r\n",
      "dataloader.py\t      LICENSE\t      pPose_nms.py\tvideo_demo.py\r\n",
      "dataloader_webcam.py  matching.py     __pycache__\twebcam_demo.py\r\n",
      "demo.py\t\t      models\t      README.md\t\tyolo\r\n",
      "doc\t\t      online_demo.py  requirements.txt\r\n",
      "examples\t      opt.py\t      SPPE\r\n",
      "extract_pose.py       output\t      torchsample\r\n"
     ]
    }
   ],
   "source": [
    "os.chdir('/mnt/disks/cricket-highlights/anvesh/AlphaPose/')\n",
    "!ls"
   ]
  },
  {
   "cell_type": "code",
   "execution_count": 126,
   "metadata": {
    "scrolled": false
   },
   "outputs": [
    {
     "name": "stdout",
     "output_type": "stream",
     "text": [
      "custom_code/temp/temp_output003.mp4\n",
      "(73, 17)\n",
      "custom_code/temp/temp_output020.mp4\n",
      "(160, 17)\n",
      "custom_code/temp/temp_output019.mp4\n",
      "(489, 17)\n",
      "custom_code/temp/temp_output016.mp4\n",
      "(503, 17)\n",
      "custom_code/temp/temp_output005.mp4\n",
      "(586, 17)\n",
      "custom_code/temp/temp_output002.mp4\n",
      "(644, 17)\n",
      "custom_code/temp/temp_output009.mp4\n",
      "(717, 17)\n",
      "custom_code/temp/temp_output004.mp4\n",
      "(766, 17)\n",
      "custom_code/temp/temp_output015.mp4\n",
      "(773, 17)\n",
      "custom_code/temp/temp_output007.mp4\n",
      "(811, 17)\n",
      "custom_code/temp/temp_output014.mp4\n",
      "(844, 17)\n",
      "custom_code/temp/temp_output022.mp4\n",
      "(905, 17)\n",
      "custom_code/temp/temp_output023.mp4\n",
      "(945, 17)\n",
      "custom_code/temp/temp_output006.mp4\n",
      "(1305, 17)\n",
      "custom_code/temp/temp_output010.mp4\n",
      "(1320, 17)\n",
      "custom_code/temp/temp_output021.mp4\n",
      "(1479, 17)\n",
      "custom_code/temp/temp_output000.mp4\n",
      "(1513, 17)\n",
      "custom_code/temp/temp_output011.mp4\n",
      "(1618, 17)\n",
      "custom_code/temp/temp_output018.mp4\n",
      "(1777, 17)\n",
      "custom_code/temp/temp_output013.mp4\n",
      "(1916, 17)\n",
      "custom_code/temp/temp_output012.mp4\n",
      "(2102, 17)\n",
      "custom_code/temp/temp_output008.mp4\n",
      "(2160, 17)\n",
      "custom_code/temp/temp_output001.mp4\n",
      "(2291, 17)\n",
      "custom_code/temp/temp_output017.mp4\n",
      "(2342, 17)\n"
     ]
    }
   ],
   "source": [
    "import glob\n",
    "df_concat = pd.DataFrame()\n",
    "for i in glob.glob('custom_code/temp/*'):\n",
    "    os.system('python video_demo.py --video '+i+' --outdir custom_code/temp_output   --conf 0.5 --nms 0.45 --sp --detbatch 2 --inp_dim 480')\n",
    "    print(i)\n",
    "    df = pd.read_json('custom_code/temp_output/alphapose-results.json')\n",
    "    df['clip']=i\n",
    "    df['normalized_tuples'] = df.keypoints.apply(normalize_tuples)\n",
    "    df['normalized_keypoints'] = df.keypoints.apply(normalize_keypoints)\n",
    "    df['width'] = df.keypoints.apply(get_width)\n",
    "    df['height'] = df.keypoints.apply(get_height)\n",
    "    df['angle_at_leftelbow'] = df.keypoints.apply(get_angle_at_joint, args=('LShoulder','LElbow','LWrist'))\n",
    "    df['angle_at_rightelbow'] = df.keypoints.apply(get_angle_at_joint, args=('RShoulder','RElbow','RWrist'))\n",
    "    df['angle_at_leftshoulder'] = df.keypoints.apply(get_angle_at_joint, args=('LHip','LShoulder','LElbow'))\n",
    "    df['angle_at_rightshoulder'] = df.keypoints.apply(get_angle_at_joint, args=('RHip','RShoulder','RElbow'))\n",
    "    df['angle_at_leftknee'] = df.keypoints.apply(get_angle_at_joint, args=('LHip','LKnee','LAnkle'))\n",
    "    df['angle_at_rightknee'] = df.keypoints.apply(get_angle_at_joint, args=('RHip','RKnee','RAnkle'))\n",
    "    df['angle_at_hip'] = df.keypoints.apply(get_angle_at_hip)\n",
    "    df['is_person_standing'] = df.keypoints.apply(is_person_standing_straight)\n",
    "    df_concat = df_concat.append(df)\n",
    "    print(df_concat.shape)\n"
   ]
  },
  {
   "cell_type": "code",
   "execution_count": 124,
   "metadata": {},
   "outputs": [
    {
     "data": {
      "text/plain": [
       "897"
      ]
     },
     "execution_count": 124,
     "metadata": {},
     "output_type": "execute_result"
    }
   ],
   "source": [
    "len(df.image_id.unique())\n"
   ]
  },
  {
   "cell_type": "code",
   "execution_count": 115,
   "metadata": {},
   "outputs": [],
   "source": [
    "df_concat=  df_concat.sort_values(by=['image_id', 'height'],ascending=False).drop_duplicates(['clip','image_id'])"
   ]
  },
  {
   "cell_type": "code",
   "execution_count": 127,
   "metadata": {},
   "outputs": [
    {
     "name": "stdout",
     "output_type": "stream",
     "text": [
      "(2342, 17)\n"
     ]
    }
   ],
   "source": [
    "print(df_concat.shape)\n"
   ]
  },
  {
   "cell_type": "code",
   "execution_count": 128,
   "metadata": {},
   "outputs": [],
   "source": [
    "#X_mat = np.vstack( (df_concat.normalized_keypoints))\n",
    "X_mat1 = np.vstack( (df_concat.normalized_keypoints))\n",
    "X_mat2 = np.matrix(df_concat[['angle_at_leftelbow','angle_at_rightelbow','angle_at_leftshoulder','angle_at_rightshoulder','angle_at_leftknee','angle_at_rightknee','angle_at_hip']])\n",
    "X_mat = np.hstack((X_mat1,X_mat2))"
   ]
  },
  {
   "cell_type": "code",
   "execution_count": 161,
   "metadata": {},
   "outputs": [],
   "source": [
    "pred = clf.predict(X_mat)\n",
    "pred_proba = clf.predict_proba(X_mat)"
   ]
  },
  {
   "cell_type": "code",
   "execution_count": 162,
   "metadata": {},
   "outputs": [
    {
     "data": {
      "text/plain": [
       "(2342, 58)"
      ]
     },
     "execution_count": 162,
     "metadata": {},
     "output_type": "execute_result"
    }
   ],
   "source": [
    "X_mat.shape"
   ]
  },
  {
   "cell_type": "code",
   "execution_count": 163,
   "metadata": {},
   "outputs": [
    {
     "data": {
      "text/plain": [
       "clip\n",
       "custom_code/temp/temp_output000.mp4    0.029412\n",
       "custom_code/temp/temp_output001.mp4    0.061069\n",
       "custom_code/temp/temp_output002.mp4    0.000000\n",
       "custom_code/temp/temp_output003.mp4    0.136986\n",
       "custom_code/temp/temp_output004.mp4    0.000000\n",
       "custom_code/temp/temp_output005.mp4    0.000000\n",
       "custom_code/temp/temp_output006.mp4    0.186111\n",
       "custom_code/temp/temp_output007.mp4    0.052632\n",
       "custom_code/temp/temp_output008.mp4    0.051724\n",
       "custom_code/temp/temp_output009.mp4    0.000000\n",
       "custom_code/temp/temp_output010.mp4    0.000000\n",
       "custom_code/temp/temp_output011.mp4    0.028571\n",
       "custom_code/temp/temp_output012.mp4    0.053763\n",
       "custom_code/temp/temp_output013.mp4    0.100719\n",
       "custom_code/temp/temp_output014.mp4    0.666667\n",
       "custom_code/temp/temp_output015.mp4    0.000000\n",
       "custom_code/temp/temp_output016.mp4    0.142857\n",
       "custom_code/temp/temp_output017.mp4    0.137255\n",
       "custom_code/temp/temp_output018.mp4    0.062893\n",
       "custom_code/temp/temp_output019.mp4    0.085106\n",
       "custom_code/temp/temp_output020.mp4    0.022989\n",
       "custom_code/temp/temp_output021.mp4    0.000000\n",
       "custom_code/temp/temp_output022.mp4    0.016393\n",
       "custom_code/temp/temp_output023.mp4    0.325000\n",
       "Name: pred, dtype: float64"
      ]
     },
     "execution_count": 163,
     "metadata": {},
     "output_type": "execute_result"
    }
   ],
   "source": [
    "df_concat['pred']= pred\n",
    "df_concat['pred_proba']= pred_proba[:,1]\n",
    "res = df_concat.groupby(['clip']).pred.mean()\n",
    "res"
   ]
  },
  {
   "cell_type": "code",
   "execution_count": null,
   "metadata": {},
   "outputs": [],
   "source": []
  },
  {
   "cell_type": "code",
   "execution_count": 164,
   "metadata": {},
   "outputs": [],
   "source": [
    "moving_res = [np.sum(res[i-1:i+2])/3 for i in range(len(res))]"
   ]
  },
  {
   "cell_type": "code",
   "execution_count": 165,
   "metadata": {
    "scrolled": true
   },
   "outputs": [
    {
     "data": {
      "text/plain": [
       "clip\n",
       "custom_code/temp/temp_output000.mp4    0.029412\n",
       "custom_code/temp/temp_output001.mp4    0.061069\n",
       "custom_code/temp/temp_output002.mp4    0.000000\n",
       "custom_code/temp/temp_output003.mp4    0.136986\n",
       "custom_code/temp/temp_output004.mp4    0.000000\n",
       "custom_code/temp/temp_output005.mp4    0.000000\n",
       "custom_code/temp/temp_output006.mp4    0.186111\n",
       "custom_code/temp/temp_output007.mp4    0.052632\n",
       "custom_code/temp/temp_output008.mp4    0.051724\n",
       "custom_code/temp/temp_output009.mp4    0.000000\n",
       "custom_code/temp/temp_output010.mp4    0.000000\n",
       "custom_code/temp/temp_output011.mp4    0.028571\n",
       "custom_code/temp/temp_output012.mp4    0.053763\n",
       "custom_code/temp/temp_output013.mp4    0.100719\n",
       "custom_code/temp/temp_output014.mp4    0.666667\n",
       "custom_code/temp/temp_output015.mp4    0.000000\n",
       "custom_code/temp/temp_output016.mp4    0.142857\n",
       "custom_code/temp/temp_output017.mp4    0.137255\n",
       "custom_code/temp/temp_output018.mp4    0.062893\n",
       "custom_code/temp/temp_output019.mp4    0.085106\n",
       "custom_code/temp/temp_output020.mp4    0.022989\n",
       "custom_code/temp/temp_output021.mp4    0.000000\n",
       "custom_code/temp/temp_output022.mp4    0.016393\n",
       "custom_code/temp/temp_output023.mp4    0.325000\n",
       "Name: pred, dtype: float64"
      ]
     },
     "execution_count": 165,
     "metadata": {},
     "output_type": "execute_result"
    }
   ],
   "source": [
    "res"
   ]
  },
  {
   "cell_type": "code",
   "execution_count": 166,
   "metadata": {
    "scrolled": true
   },
   "outputs": [
    {
     "data": {
      "text/plain": [
       "[0.0,\n",
       " 0.03016015566531956,\n",
       " 0.06601833455331312,\n",
       " 0.045662100456621,\n",
       " 0.045662100456621,\n",
       " 0.062037037037037036,\n",
       " 0.07958089668615985,\n",
       " 0.09682227599650467,\n",
       " 0.03478523895946763,\n",
       " 0.017241379310344827,\n",
       " 0.009523809523809523,\n",
       " 0.02744495647721454,\n",
       " 0.061018097964025096,\n",
       " 0.2737165106624378,\n",
       " 0.2557953637090328,\n",
       " 0.2698412698412698,\n",
       " 0.09337068160597572,\n",
       " 0.11433504219297781,\n",
       " 0.09508478890017134,\n",
       " 0.056995990162285376,\n",
       " 0.03603162957528328,\n",
       " 0.013127316123359087,\n",
       " 0.11379781420765028,\n",
       " 0.11379781420765028]"
      ]
     },
     "execution_count": 166,
     "metadata": {},
     "output_type": "execute_result"
    }
   ],
   "source": [
    "moving_res"
   ]
  },
  {
   "cell_type": "code",
   "execution_count": 169,
   "metadata": {},
   "outputs": [
    {
     "data": {
      "text/plain": [
       "23"
      ]
     },
     "execution_count": 169,
     "metadata": {},
     "output_type": "execute_result"
    }
   ],
   "source": [
    "np.sum(np.array(moving_res)>0.0)"
   ]
  },
  {
   "cell_type": "code",
   "execution_count": 170,
   "metadata": {},
   "outputs": [
    {
     "data": {
      "text/plain": [
       "24"
      ]
     },
     "execution_count": 170,
     "metadata": {},
     "output_type": "execute_result"
    }
   ],
   "source": [
    "len(moving_res)"
   ]
  },
  {
   "cell_type": "code",
   "execution_count": 172,
   "metadata": {
    "scrolled": true
   },
   "outputs": [
    {
     "name": "stdout",
     "output_type": "stream",
     "text": [
      "0.0\n",
      "0.03\n",
      "0.07\n",
      "0.05\n",
      "0.05\n",
      "0.06\n",
      "0.08\n",
      "0.1\n",
      "0.03\n",
      "0.02\n",
      "0.01\n",
      "0.03\n",
      "0.06\n",
      "custom_code/temp/temp_output013.mp4\n",
      "custom_code/temp/temp_output014.mp4\n",
      "custom_code/temp/temp_output015.mp4\n",
      "0.09\n",
      "custom_code/temp/temp_output017.mp4\n",
      "0.1\n",
      "0.06\n",
      "0.04\n",
      "0.01\n",
      "custom_code/temp/temp_output022.mp4\n",
      "custom_code/temp/temp_output023.mp4\n"
     ]
    }
   ],
   "source": [
    "for i in range(len(moving_res)):\n",
    "    if moving_res[i]>0.1:\n",
    "        print(res.index[int(i)])\n",
    "    else:\n",
    "        print(round(moving_res[i],2))"
   ]
  },
  {
   "cell_type": "code",
   "execution_count": 158,
   "metadata": {},
   "outputs": [
    {
     "name": "stdout",
     "output_type": "stream",
     "text": [
      "custom_code/temp/temp_output007.mp4\n",
      "\n",
      "custom_code/temp/temp_output009.mp4\n",
      "\n",
      "custom_code/temp/temp_output010.mp4\n",
      "\n",
      "custom_code/temp/temp_output011.mp4\n",
      "\n",
      "custom_code/temp/temp_output013.mp4\n",
      "\n",
      "custom_code/temp/temp_output014.mp4\n",
      "\n",
      "custom_code/temp/temp_output015.mp4\n",
      "\n",
      "custom_code/temp/temp_output022.mp4\n",
      "\n",
      "custom_code/temp/temp_output023.mp4\n",
      "\n"
     ]
    },
    {
     "data": {
      "text/plain": [
       "0"
      ]
     },
     "execution_count": 158,
     "metadata": {},
     "output_type": "execute_result"
    }
   ],
   "source": [
    "f= open(\"clipslist.txt\",\"w+\")\n",
    "\n",
    "for i in range(len(moving_res)):\n",
    "    if moving_res[i]>0.2:\n",
    "        try:\n",
    "            f.write(\"file \"+res.index[int(i)]+\"\\n\")\n",
    "            print(res.index[int(i)]+\"\\n\")\n",
    "        except:\n",
    "            pass\n",
    "f.close()\n",
    "\n",
    "os.system('ffmpeg -f concat -safe 0 -i clipslist.txt -c copy sindhu.mp4')\n",
    "\n",
    "os.system('rm clipslist.txt')"
   ]
  },
  {
   "cell_type": "code",
   "execution_count": 88,
   "metadata": {
    "scrolled": true
   },
   "outputs": [
    {
     "name": "stdout",
     "output_type": "stream",
     "text": [
      "ffmpeg version 2.8.15-0ubuntu0.16.04.1 Copyright (c) 2000-2018 the FFmpeg developers\n",
      "  built with gcc 5.4.0 (Ubuntu 5.4.0-6ubuntu1~16.04.10) 20160609\n",
      "  configuration: --prefix=/usr --extra-version=0ubuntu0.16.04.1 --build-suffix=-ffmpeg --toolchain=hardened --libdir=/usr/lib/x86_64-linux-gnu --incdir=/usr/include/x86_64-linux-gnu --cc=cc --cxx=g++ --enable-gpl --enable-shared --disable-stripping --disable-decoder=libopenjpeg --disable-decoder=libschroedinger --enable-avresample --enable-avisynth --enable-gnutls --enable-ladspa --enable-libass --enable-libbluray --enable-libbs2b --enable-libcaca --enable-libcdio --enable-libflite --enable-libfontconfig --enable-libfreetype --enable-libfribidi --enable-libgme --enable-libgsm --enable-libmodplug --enable-libmp3lame --enable-libopenjpeg --enable-libopus --enable-libpulse --enable-librtmp --enable-libschroedinger --enable-libshine --enable-libsnappy --enable-libsoxr --enable-libspeex --enable-libssh --enable-libtheora --enable-libtwolame --enable-libvorbis --enable-libvpx --enable-libwavpack --enable-libwebp --enable-libx265 --enable-libxvid --enable-libzvbi --enable-openal --enable-opengl --enable-x11grab --enable-libdc1394 --enable-libiec61883 --enable-libzmq --enable-frei0r --enable-libx264 --enable-libopencv\n",
      "  libavutil      54. 31.100 / 54. 31.100\n",
      "  libavcodec     56. 60.100 / 56. 60.100\n",
      "  libavformat    56. 40.101 / 56. 40.101\n",
      "  libavdevice    56.  4.100 / 56.  4.100\n",
      "  libavfilter     5. 40.101 /  5. 40.101\n",
      "  libavresample   2.  1.  0 /  2.  1.  0\n",
      "  libswscale      3.  1.101 /  3.  1.101\n",
      "  libswresample   1.  2.101 /  1.  2.101\n",
      "  libpostproc    53.  3.100 / 53.  3.100\n",
      "\u001b[0;36m[mjpeg @ 0x1207340] \u001b[0mChangeing bps to 8\n",
      "Input #0, mov,mp4,m4a,3gp,3g2,mj2, from 'local_v4.mp4':\n",
      "  Metadata:\n",
      "    major_brand     : isom\n",
      "    minor_version   : 512\n",
      "    compatible_brands: isomiso2mp41\n",
      "    encoder         : Lavf56.40.101\n",
      "  Duration: 00:06:56.00, start: 0.000000, bitrate: 51735 kb/s\n",
      "    Stream #0:0(und): Video: mjpeg (mp4v / 0x7634706D), yuvj420p(pc, bt470bg/unknown/unknown), 1920x1080, 51734 kb/s, 30 fps, 30 tbr, 15360 tbn, 15360 tbc (default)\n",
      "    Metadata:\n",
      "      handler_name    : VideoHandler\n",
      "\u001b[1;34m[swscaler @ 0x128b860] \u001b[0m\u001b[0;33mdeprecated pixel format used, make sure you did set range correctly\n",
      "\u001b[0m\u001b[0;33mNo pixel format specified, yuvj420p for H.264 encoding chosen.\n",
      "Use -pix_fmt yuv420p for compatibility with outdated media players.\n",
      "\u001b[0m\u001b[1;36m[libx264 @ 0x1209c00] \u001b[0musing cpu capabilities: MMX2 SSE2Fast SSSE3 SSE4.2 AVX FMA3 AVX2 LZCNT BMI2\n",
      "\u001b[1;36m[libx264 @ 0x1209c00] \u001b[0mprofile High, level 2.1\n",
      "\u001b[1;36m[libx264 @ 0x1209c00] \u001b[0m264 - core 148 r2643 5c65704 - H.264/MPEG-4 AVC codec - Copyleft 2003-2015 - http://www.videolan.org/x264.html - options: cabac=1 ref=3 deblock=1:0:0 analyse=0x3:0x113 me=hex subme=7 psy=1 psy_rd=1.00:0.00 mixed_ref=1 me_range=16 chroma_me=1 trellis=1 8x8dct=1 cqm=0 deadzone=21,11 fast_pskip=1 chroma_qp_offset=-2 threads=6 lookahead_threads=1 sliced_threads=0 nr=0 decimate=1 interlaced=0 bluray_compat=0 constrained_intra=0 bframes=3 b_pyramid=2 b_adapt=1 b_bias=0 direct=1 weightb=1 open_gop=0 weightp=2 keyint=250 keyint_min=25 scenecut=40 intra_refresh=0 rc_lookahead=40 rc=crf mbtree=1 crf=23.0 qcomp=0.60 qpmin=0 qpmax=69 qpstep=4 ip_ratio=1.40 aq=1:1.00\n",
      "Output #0, mp4, to 'local_v4_down.mp4':\n",
      "  Metadata:\n",
      "    major_brand     : isom\n",
      "    minor_version   : 512\n",
      "    compatible_brands: isomiso2mp41\n",
      "    encoder         : Lavf56.40.101\n",
      "    Stream #0:0(und): Video: h264 (libx264) ([33][0][0][0] / 0x0021), yuvj420p(pc), 480x270, q=-1--1, 30 fps, 15360 tbn, 30 tbc (default)\n",
      "    Metadata:\n",
      "      handler_name    : VideoHandler\n",
      "      encoder         : Lavc56.60.100 libx264\n",
      "Stream mapping:\n",
      "  Stream #0:0 -> #0:0 (mjpeg (native) -> h264 (libx264))\n",
      "Press [q] to stop, [?] for help\n",
      "frame=12480 fps= 91 q=-1.0 Lsize=   23284kB time=00:06:55.93 bitrate= 458.6kbits/s    \n",
      "video:23145kB audio:0kB subtitle:0kB other streams:0kB global headers:0kB muxing overhead: 0.597120%\n",
      "\u001b[1;36m[libx264 @ 0x1209c00] \u001b[0mframe I:128   Avg QP:22.15  size: 22685\n",
      "\u001b[1;36m[libx264 @ 0x1209c00] \u001b[0mframe P:6117  Avg QP:24.90  size:  2847\n",
      "\u001b[1;36m[libx264 @ 0x1209c00] \u001b[0mframe B:6235  Avg QP:30.43  size:   542\n",
      "\u001b[1;36m[libx264 @ 0x1209c00] \u001b[0mconsecutive B-frames: 19.8% 30.0% 32.2% 18.0%\n",
      "\u001b[1;36m[libx264 @ 0x1209c00] \u001b[0mmb I  I16..4:  9.0% 31.7% 59.3%\n",
      "\u001b[1;36m[libx264 @ 0x1209c00] \u001b[0mmb P  I16..4:  0.9%  1.4%  1.1%  P16..4: 24.1% 10.8%  8.1%  0.0%  0.0%    skip:53.5%\n",
      "\u001b[1;36m[libx264 @ 0x1209c00] \u001b[0mmb B  I16..4:  0.0%  0.1%  0.1%  B16..8: 15.2%  3.5%  1.4%  direct: 1.5%  skip:78.1%  L0:33.8% L1:52.8% BI:13.4%\n",
      "\u001b[1;36m[libx264 @ 0x1209c00] \u001b[0m8x8 transform intra:37.5% inter:47.3%\n",
      "\u001b[1;36m[libx264 @ 0x1209c00] \u001b[0mcoded y,uvDC,uvAC intra: 70.0% 83.4% 62.3% inter: 11.0% 10.2% 2.9%\n",
      "\u001b[1;36m[libx264 @ 0x1209c00] \u001b[0mi16 v,h,dc,p: 16% 68%  7%  9%\n",
      "\u001b[1;36m[libx264 @ 0x1209c00] \u001b[0mi8 v,h,dc,ddl,ddr,vr,hd,vl,hu: 19% 30% 20%  4%  4%  5%  6%  6%  7%\n",
      "\u001b[1;36m[libx264 @ 0x1209c00] \u001b[0mi4 v,h,dc,ddl,ddr,vr,hd,vl,hu: 19% 38% 11%  4%  5%  6%  6%  5%  6%\n",
      "\u001b[1;36m[libx264 @ 0x1209c00] \u001b[0mi8c dc,h,v,p: 38% 40% 15%  6%\n",
      "\u001b[1;36m[libx264 @ 0x1209c00] \u001b[0mWeighted P-Frames: Y:0.6% UV:0.2%\n",
      "\u001b[1;36m[libx264 @ 0x1209c00] \u001b[0mref P L0: 70.8% 13.9% 10.6%  4.6%  0.0%\n",
      "\u001b[1;36m[libx264 @ 0x1209c00] \u001b[0mref B L0: 89.6%  9.6%  0.7%\n",
      "\u001b[1;36m[libx264 @ 0x1209c00] \u001b[0mref B L1: 97.4%  2.6%\n",
      "\u001b[1;36m[libx264 @ 0x1209c00] \u001b[0mkb/s:455.77\n"
     ]
    }
   ],
   "source": [
    "!ffmpeg -i local_v4.mp4 -filter:v \"setpts=0.5*PTS\" -filter:v scale=480:-1 -c:a copy local_v4_down.mp4"
   ]
  },
  {
   "cell_type": "code",
   "execution_count": 93,
   "metadata": {},
   "outputs": [
    {
     "name": "stdout",
     "output_type": "stream",
     "text": [
      "ffmpeg version 2.8.15-0ubuntu0.16.04.1 Copyright (c) 2000-2018 the FFmpeg developers\n",
      "  built with gcc 5.4.0 (Ubuntu 5.4.0-6ubuntu1~16.04.10) 20160609\n",
      "  configuration: --prefix=/usr --extra-version=0ubuntu0.16.04.1 --build-suffix=-ffmpeg --toolchain=hardened --libdir=/usr/lib/x86_64-linux-gnu --incdir=/usr/include/x86_64-linux-gnu --cc=cc --cxx=g++ --enable-gpl --enable-shared --disable-stripping --disable-decoder=libopenjpeg --disable-decoder=libschroedinger --enable-avresample --enable-avisynth --enable-gnutls --enable-ladspa --enable-libass --enable-libbluray --enable-libbs2b --enable-libcaca --enable-libcdio --enable-libflite --enable-libfontconfig --enable-libfreetype --enable-libfribidi --enable-libgme --enable-libgsm --enable-libmodplug --enable-libmp3lame --enable-libopenjpeg --enable-libopus --enable-libpulse --enable-librtmp --enable-libschroedinger --enable-libshine --enable-libsnappy --enable-libsoxr --enable-libspeex --enable-libssh --enable-libtheora --enable-libtwolame --enable-libvorbis --enable-libvpx --enable-libwavpack --enable-libwebp --enable-libx265 --enable-libxvid --enable-libzvbi --enable-openal --enable-opengl --enable-x11grab --enable-libdc1394 --enable-libiec61883 --enable-libzmq --enable-frei0r --enable-libx264 --enable-libopencv\n",
      "  libavutil      54. 31.100 / 54. 31.100\n",
      "  libavcodec     56. 60.100 / 56. 60.100\n",
      "  libavformat    56. 40.101 / 56. 40.101\n",
      "  libavdevice    56.  4.100 / 56.  4.100\n",
      "  libavfilter     5. 40.101 /  5. 40.101\n",
      "  libavresample   2.  1.  0 /  2.  1.  0\n",
      "  libswscale      3.  1.101 /  3.  1.101\n",
      "  libswresample   1.  2.101 /  1.  2.101\n",
      "  libpostproc    53.  3.100 / 53.  3.100\n",
      "Input #0, mov,mp4,m4a,3gp,3g2,mj2, from 'local_v4_down.mp4':\n",
      "  Metadata:\n",
      "    major_brand     : isom\n",
      "    minor_version   : 512\n",
      "    compatible_brands: isomiso2avc1mp41\n",
      "    encoder         : Lavf56.40.101\n",
      "  Duration: 00:06:56.00, start: 0.000000, bitrate: 251 kb/s\n",
      "    Stream #0:0(und): Video: h264 (High) (avc1 / 0x31637661), yuvj420p(pc), 320x180, 248 kb/s, 30 fps, 30 tbr, 15360 tbn, 60 tbc (default)\n",
      "    Metadata:\n",
      "      handler_name    : VideoHandler\n",
      "\u001b[0;33mNo pixel format specified, yuvj420p for H.264 encoding chosen.\n",
      "Use -pix_fmt yuv420p for compatibility with outdated media players.\n",
      "\u001b[0m\u001b[1;36m[libx264 @ 0x25e7f80] \u001b[0musing cpu capabilities: MMX2 SSE2Fast SSSE3 SSE4.2 AVX FMA3 AVX2 LZCNT BMI2\n",
      "\u001b[1;36m[libx264 @ 0x25e7f80] \u001b[0mprofile High, level 1.3\n",
      "\u001b[1;36m[libx264 @ 0x25e7f80] \u001b[0m264 - core 148 r2643 5c65704 - H.264/MPEG-4 AVC codec - Copyleft 2003-2015 - http://www.videolan.org/x264.html - options: cabac=1 ref=3 deblock=1:0:0 analyse=0x3:0x113 me=hex subme=7 psy=1 psy_rd=1.00:0.00 mixed_ref=1 me_range=16 chroma_me=1 trellis=1 8x8dct=1 cqm=0 deadzone=21,11 fast_pskip=1 chroma_qp_offset=-2 threads=6 lookahead_threads=1 sliced_threads=0 nr=0 decimate=1 interlaced=0 bluray_compat=0 constrained_intra=0 bframes=3 b_pyramid=2 b_adapt=1 b_bias=0 direct=1 weightb=1 open_gop=0 weightp=2 keyint=250 keyint_min=25 scenecut=40 intra_refresh=0 rc_lookahead=40 rc=crf mbtree=1 crf=23.0 qcomp=0.60 qpmin=0 qpmax=69 qpstep=4 ip_ratio=1.40 aq=1:1.00\n",
      "Output #0, mp4, to 'local_v4_down_fast.mp4':\n",
      "  Metadata:\n",
      "    major_brand     : isom\n",
      "    minor_version   : 512\n",
      "    compatible_brands: isomiso2avc1mp41\n",
      "    encoder         : Lavf56.40.101\n",
      "    Stream #0:0(und): Video: h264 (libx264) ([33][0][0][0] / 0x0021), yuvj420p(pc), 320x180, q=-1--1, 30 fps, 15360 tbn, 30 tbc (default)\n",
      "    Metadata:\n",
      "      handler_name    : VideoHandler\n",
      "      encoder         : Lavc56.60.100 libx264\n",
      "Stream mapping:\n",
      "  Stream #0:0 -> #0:0 (h264 (native) -> h264 (libx264))\n",
      "Press [q] to stop, [?] for help\n",
      "\u001b[0;33mPast duration 0.999992 too large\n",
      "frame= 6242 fps=432 q=-1.0 Lsize=    8058kB time=00:03:28.00 bitrate= 317.4kbits/s dup=0 drop=6238      \n",
      "video:7994kB audio:0kB subtitle:0kB other streams:0kB global headers:0kB muxing overhead: 0.792385%\n",
      "\u001b[1;36m[libx264 @ 0x25e7f80] \u001b[0mframe I:108   Avg QP:22.81  size: 11407\n",
      "\u001b[1;36m[libx264 @ 0x25e7f80] \u001b[0mframe P:3905  Avg QP:25.46  size:  1494\n",
      "\u001b[1;36m[libx264 @ 0x25e7f80] \u001b[0mframe B:2229  Avg QP:31.27  size:   502\n",
      "\u001b[1;36m[libx264 @ 0x25e7f80] \u001b[0mconsecutive B-frames: 35.1% 47.4% 13.5%  4.0%\n",
      "\u001b[1;36m[libx264 @ 0x25e7f80] \u001b[0mmb I  I16..4:  6.9% 28.1% 65.0%\n",
      "\u001b[1;36m[libx264 @ 0x25e7f80] \u001b[0mmb P  I16..4:  0.7%  1.6%  1.8%  P16..4: 24.9% 11.1%  8.8%  0.0%  0.0%    skip:51.1%\n",
      "\u001b[1;36m[libx264 @ 0x25e7f80] \u001b[0mmb B  I16..4:  0.1%  0.2%  0.4%  B16..8: 20.7%  6.7%  2.8%  direct: 2.1%  skip:67.0%  L0:39.5% L1:46.4% BI:14.1%\n",
      "\u001b[1;36m[libx264 @ 0x25e7f80] \u001b[0m8x8 transform intra:34.8% inter:45.2%\n",
      "\u001b[1;36m[libx264 @ 0x25e7f80] \u001b[0mcoded y,uvDC,uvAC intra: 70.8% 87.8% 62.8% inter: 14.8% 15.7% 4.4%\n",
      "\u001b[1;36m[libx264 @ 0x25e7f80] \u001b[0mi16 v,h,dc,p: 17% 66%  8%  9%\n",
      "\u001b[1;36m[libx264 @ 0x25e7f80] \u001b[0mi8 v,h,dc,ddl,ddr,vr,hd,vl,hu: 25% 28% 16%  4%  4%  5%  5%  5%  7%\n",
      "\u001b[1;36m[libx264 @ 0x25e7f80] \u001b[0mi4 v,h,dc,ddl,ddr,vr,hd,vl,hu: 31% 30% 10%  4%  4%  5%  5%  5%  5%\n",
      "\u001b[1;36m[libx264 @ 0x25e7f80] \u001b[0mi8c dc,h,v,p: 37% 37% 19%  7%\n",
      "\u001b[1;36m[libx264 @ 0x25e7f80] \u001b[0mWeighted P-Frames: Y:1.0% UV:0.5%\n",
      "\u001b[1;36m[libx264 @ 0x25e7f80] \u001b[0mref P L0: 75.2% 14.7%  7.4%  2.7%  0.0%\n",
      "\u001b[1;36m[libx264 @ 0x25e7f80] \u001b[0mref B L0: 91.0%  8.9%  0.2%\n",
      "\u001b[1;36m[libx264 @ 0x25e7f80] \u001b[0mref B L1: 98.8%  1.2%\n",
      "\u001b[1;36m[libx264 @ 0x25e7f80] \u001b[0mkb/s:314.73\n"
     ]
    }
   ],
   "source": [
    "!ffmpeg -i local_v4_down.mp4 -filter:v \"setpts=0.5*PTS\" local_v4_down_fast.mp4"
   ]
  },
  {
   "cell_type": "code",
   "execution_count": 89,
   "metadata": {},
   "outputs": [
    {
     "data": {
      "text/plain": [
       "290.0"
      ]
     },
     "execution_count": 89,
     "metadata": {},
     "output_type": "execute_result"
    }
   ],
   "source": [
    "8700/30"
   ]
  },
  {
   "cell_type": "code",
   "execution_count": 5,
   "metadata": {},
   "outputs": [
    {
     "data": {
      "text/plain": [
       "0.2"
      ]
     },
     "execution_count": 5,
     "metadata": {},
     "output_type": "execute_result"
    }
   ],
   "source": [
    "import numpy as np\n",
    "a=[0,0.1,0.2,0.4,0.5,0.6]\n",
    "np.percentile(a,50,interpolation='nearest')\n"
   ]
  },
  {
   "cell_type": "code",
   "execution_count": null,
   "metadata": {},
   "outputs": [],
   "source": []
  }
 ],
 "metadata": {
  "kernelspec": {
   "display_name": "Python 3",
   "language": "python",
   "name": "python3"
  },
  "language_info": {
   "codemirror_mode": {
    "name": "ipython",
    "version": 3
   },
   "file_extension": ".py",
   "mimetype": "text/x-python",
   "name": "python",
   "nbconvert_exporter": "python",
   "pygments_lexer": "ipython3",
   "version": "3.7.3"
  }
 },
 "nbformat": 4,
 "nbformat_minor": 2
}
